<?xml version="1.0" encoding="UTF-8"?>
<svg version="1.1" xmlns="http://www.w3.org/2000/svg" width="1526" height="1520">
<path d="M0 0 C2.26831669 0.26249541 4.53795354 0.50951257 6.80828857 0.75390625 C90.40900225 9.83769737 172.19485995 32.97086057 264.16033936 77.25 C265.30099854 77.81831543 266.44165771 78.38663086 267.61688232 78.97216797 C284.93979518 87.65468042 301.6407809 97.13942086 318.16033936 107.25 C319.04157471 107.78866699 319.92281006 108.32733398 320.83074951 108.88232422 C345.65231316 124.13188563 369.45083317 141.00948327 392.16033936 159.25 C392.79536377 159.75885742 393.43038818 160.26771484 394.08465576 160.79199219 C407.53198555 171.58528689 420.63373247 182.67904177 433.22698975 194.46020508 C434.73601434 195.85718188 436.25560203 197.2427509 437.77923584 198.6237793 C444.82494263 205.01140835 451.65102451 211.58372688 458.36224365 218.3215332 C459.98586165 219.95056572 461.61483539 221.57410728 463.24432373 223.19726562 C468.21423128 228.1640137 473.09724964 233.16299943 477.66400146 238.50854492 C480.03763648 241.27100839 482.54410886 243.90652888 485.03533936 246.5625 C489.5177621 251.38101711 493.77469665 256.32182933 497.89471436 261.45703125 C499.91932091 263.95288243 501.99329149 266.39728058 504.0914917 268.83129883 C510.28964924 276.03838234 515.99604568 283.55623577 521.63983154 291.20166016 C523.14680019 293.23176082 524.66979301 295.24863547 526.19940186 297.26171875 C533.14079754 306.40491887 539.78041917 315.70665171 546.16033936 325.25 C546.71560303 326.07822266 547.2708667 326.90644531 547.84295654 327.75976562 C595.59703983 399.24665801 631.04011864 478.3939074 671.39862061 679.2109375 C671.46187027 679.87424072 671.52511993 680.53754395 671.59028625 681.22094727 C672.80716167 694.71231769 673.32465255 708.18625991 673.36346436 721.7265625 C673.37048887 723.25525439 673.37757566 724.78394599 673.38471985 726.31263733 C673.40410049 731.16676258 673.40915378 736.02083995 673.41033936 740.875 C673.41078121 741.70264988 673.41122307 742.53029976 673.41167831 743.38302994 C673.41848514 767.70270156 673.22831556 791.87230061 670.41357422 816.0592041 C670.14674176 818.36763605 669.89272714 820.67725322 669.64031982 822.98730469 C660.1900961 908.57244065 635.92048613 991.45246404 546.16033936 1159.25 C545.62473389 1160.03407227 545.08912842 1160.81814453 544.53729248 1161.62597656 C535.49701452 1174.82773603 525.95785366 1187.60268352 516.16033936 1200.25 C515.63810791 1200.92820801 515.11587646 1201.60641602 514.57781982 1202.30517578 C505.58916489 1213.97683091 496.05460904 1225.13658285 486.15252686 1236.04296875 C484.39840554 1237.98626001 482.68061242 1239.95359448 480.97283936 1241.9375 C471.3318188 1252.9465032 461.11734548 1263.39414972 450.78533936 1273.75 C450.26964386 1274.26828369 449.75394836 1274.78656738 449.22262573 1275.32055664 C443.93520394 1280.62890144 438.62241077 1285.85476109 432.92596436 1290.72949219 C430.15749936 1293.11361829 427.51229388 1295.62612829 424.84783936 1298.125 C420.10400066 1302.53351253 415.25664462 1306.74253864 410.20330811 1310.796875 C407.91530343 1312.64137685 405.65122834 1314.50377719 403.39862061 1316.390625 C393.38029287 1324.76531151 383.10202386 1332.72059996 372.58758545 1340.46240234 C371.03592064 1341.6051593 369.48653365 1342.75101982 367.94012451 1343.90087891 C346.61698443 1359.75304639 324.11151027 1373.89041769 301.16033936 1387.25 C299.68742432 1388.10924072 299.68742432 1388.10924072 298.18475342 1388.98583984 C222.20758245 1433.05259901 138.10610136 1462.5901498 4.44958496 1484 C2.26479532 1484.23859275 0.08195446 1484.49040004 -2.10089111 1484.74609375 C-50.12005635 1490.27399833 -101.67948833 1490.12259453 -149.67932129 1484.5 C-151.94763798 1484.23750459 -154.21727483 1483.99048743 -156.48760986 1483.74609375 C-240.08832354 1474.66230263 -321.87418124 1451.52913943 -413.83966064 1407.25 C-414.98031982 1406.68168457 -416.120979 1406.11336914 -417.29620361 1405.52783203 C-434.61911646 1396.84531958 -451.32010219 1387.36057914 -467.83966064 1377.25 C-468.720896 1376.71133301 -469.60213135 1376.17266602 -470.5100708 1375.61767578 C-495.33163445 1360.36811437 -519.13015446 1343.49051673 -541.83966064 1325.25 C-542.47468506 1324.74114258 -543.10970947 1324.23228516 -543.76397705 1323.70800781 C-557.21130684 1312.91471311 -570.31305376 1301.82095823 -582.90631104 1290.03979492 C-584.41533563 1288.64281812 -585.93492332 1287.2572491 -587.45855713 1285.8762207 C-594.50426392 1279.48859165 -601.3303458 1272.91627312 -608.04156494 1266.1784668 C-609.66518294 1264.54943428 -611.29415668 1262.92589272 -612.92364502 1261.30273438 C-617.89355257 1256.3359863 -622.77657093 1251.33700057 -627.34332275 1245.99145508 C-629.71695777 1243.22899161 -632.22343015 1240.59347112 -634.71466064 1237.9375 C-639.19708339 1233.11898289 -643.45401794 1228.17817067 -647.57403564 1223.04296875 C-649.5986422 1220.54711757 -651.67261278 1218.10271942 -653.77081299 1215.66870117 C-659.96897053 1208.46161766 -665.67536697 1200.94376423 -671.31915283 1193.29833984 C-672.82612148 1191.26823918 -674.3491143 1189.25136453 -675.87872314 1187.23828125 C-682.82011883 1178.09508113 -689.45974046 1168.79334829 -695.83966064 1159.25 C-696.39492432 1158.42177734 -696.95018799 1157.59355469 -697.52227783 1156.74023438 C-745.27636111 1085.25334199 -780.71943993 1006.1060926 -821.07794189 805.2890625 C-821.14119156 804.62575928 -821.20444122 803.96245605 -821.26960754 803.27905273 C-822.48648296 789.78768231 -823.00397384 776.31374009 -823.04278564 762.7734375 C-823.04981016 761.24474561 -823.05689695 759.71605401 -823.06404114 758.18736267 C-823.08342178 753.33323742 -823.08847507 748.47916005 -823.08966064 743.625 C-823.0901025 742.79735012 -823.09054436 741.96970024 -823.0909996 741.11697006 C-823.09780643 716.79729844 -822.90763685 692.62769939 -820.09289551 668.4407959 C-819.82606305 666.13236395 -819.57204843 663.82274678 -819.31964111 661.51269531 C-809.86941739 575.92755935 -785.59980741 493.04753596 -695.83966064 325.25 C-695.30405518 324.46592773 -694.76844971 323.68185547 -694.21661377 322.87402344 C-685.17633581 309.67226397 -675.63717495 296.89731648 -665.83966064 284.25 C-665.3174292 283.57179199 -664.79519775 282.89358398 -664.25714111 282.19482422 C-655.26848618 270.52316909 -645.73393033 259.36341715 -635.83184814 248.45703125 C-634.07772683 246.51373999 -632.35993371 244.54640552 -630.65216064 242.5625 C-621.01114009 231.5534968 -610.79666677 221.10585028 -600.46466064 210.75 C-599.94896515 210.23171631 -599.43326965 209.71343262 -598.90194702 209.17944336 C-593.61452523 203.87109856 -588.30173206 198.64523891 -582.60528564 193.77050781 C-579.83682065 191.38638171 -577.19161517 188.87387171 -574.52716064 186.375 C-569.78332195 181.96648747 -564.9359659 177.75746136 -559.88262939 173.703125 C-557.59462472 171.85862315 -555.33054963 169.99622281 -553.07794189 168.109375 C-543.05961416 159.73468849 -532.78134515 151.77940004 -522.26690674 144.03759766 C-520.71524193 142.8948407 -519.16585493 141.74898018 -517.6194458 140.59912109 C-496.29630572 124.74695361 -473.79083156 110.60958231 -450.83966064 97.25 C-449.36674561 96.39075928 -449.36674561 96.39075928 -447.86407471 95.51416016 C-371.88690374 51.44740099 -287.78542265 21.9098502 -154.12890625 0.5 C-151.94411661 0.26140725 -149.76127575 0.00959996 -147.57843018 -0.24609375 C-99.55926494 -5.77399833 -47.99983296 -5.62259453 0 0 Z " fill="#FEFEFE" transform="translate(829.8396606445313,9.75)"/>
<path d="M0 0 C6.90078478 0.66007507 13.28533945 2.79758159 19.875 4.875 C21.57462891 5.40287109 21.57462891 5.40287109 23.30859375 5.94140625 C28.21472901 7.4706651 33.10872001 9.02459386 37.9765625 10.671875 C41.12476907 11.73084984 44.2617954 12.62397062 47.5 13.375 C53.29565942 14.77574121 58.99010062 16.44016022 64.68554688 18.19873047 C68.29595156 19.29135294 71.87103671 20.20355167 75.578125 20.90625 C83.17650936 22.36344447 90.62755995 24.46584618 98.09765625 26.46557617 C105.96808575 28.56716079 113.81967656 30.4279328 121.84114075 31.87013245 C126.87042807 32.77553414 131.86722534 33.79399842 136.86328125 34.8671875 C169.60135534 41.85959986 202.40506945 46.20296309 235.65234375 49.984375 C236.41979416 50.07268082 237.18724457 50.16098663 237.97795105 50.25196838 C240.31741682 50.5148787 242.6579801 50.76092675 245 51 C245.87706604 51.09260101 246.75413208 51.18520203 247.65777588 51.28060913 C256.39515409 52.11583929 265.10063542 52.14596254 273.8671875 52.1328125 C275.47559626 52.13348833 277.08400492 52.13446067 278.69241333 52.13571167 C282.04576602 52.13717636 285.39909187 52.1350745 288.75244141 52.13037109 C293.01054977 52.12468387 297.26859494 52.12795434 301.52670097 52.13394356 C304.84364277 52.13759049 308.16057007 52.13639164 311.47751236 52.13381577 C313.04569634 52.13315739 314.61388171 52.13393593 316.18206406 52.13629532 C325.84049981 52.14764015 335.37086297 51.83791349 345 51 C346.44206141 53.51831689 347.87871208 56.03947785 349.3125 58.5625 C349.71662109 59.26697266 350.12074219 59.97144531 350.53710938 60.69726562 C352.39292659 63.97134965 354.15209948 67.21335018 355.60546875 70.6875 C356.89553239 73.75185286 358.35419528 76.55305579 360 79.4375 C361.75948414 82.60284647 363.33407215 85.6341169 364.5 89.0625 C365.61042438 92.28864421 367.13204321 94.9799658 368.9375 97.875 C370.88107155 101.01025045 372.48002132 103.97665761 373.75 107.4375 C376.00925354 113.43393543 379.06896804 118.97545553 382.08056641 124.61791992 C385.18387654 130.43421173 388.17375873 136.29368672 391.08959961 142.20581055 C393.06109462 146.18235154 395.12028043 150.09725493 397.25097656 153.99072266 C401.92396886 162.56074119 404.81819244 169.66677329 405.8203125 179.421875 C406.99106108 190.00855146 408.99786509 200.41980812 411 210.875 C411.35991803 212.77593893 411.71929536 214.67698032 412.078125 216.578125 C412.75764159 220.17461622 413.43806033 223.77093298 414.12011719 227.36694336 C414.27202515 228.1679245 414.42393311 228.96890564 414.58044434 229.79415894 C414.94093703 231.68947263 415.30462814 233.58417749 415.66894531 235.47875977 C416.65811729 240.71892994 417.32306097 245.8755842 417.75 251.1875 C418.97011801 264.40914239 421.77916118 277.41119118 424.30761719 290.43041992 C424.53610352 291.60838135 424.76458984 292.78634277 425 294 C425.30019043 295.54747925 425.30019043 295.54747925 425.60644531 297.1262207 C426.61754058 302.48437864 427.31352687 307.7566086 427.75 313.1875 C428.57343481 322.12857559 430.22125397 330.88386023 431.9375 339.6875 C433.72253865 348.85079537 435.37202097 357.96106566 436.375 367.25 C437.86941108 380.9528446 440.55285146 394.46139661 443.13232422 407.99316406 C444.85530004 417.1147412 446.33026462 426.15625396 447.25125122 435.39422607 C448.04804886 443.08901467 449.49039946 450.63397724 450.97021484 458.22216797 C453.32948305 470.3537864 455.45988183 482.41987346 456.79443359 494.71191406 C458.09268329 505.94788678 460.32445009 517.03322252 462.48828125 528.12890625 C462.63784775 528.90924225 462.78741425 529.68957825 462.94151306 530.49356079 C463.21583319 531.92343233 463.49542719 533.35231299 463.7827301 534.77963257 C464.78016669 540.00212938 465.36375736 545.23391693 465.91577148 550.51757812 C466.77954851 558.67072189 468.05116187 566.69140668 469.55787659 574.74820328 C469.98453593 577.02972637 470.40316291 579.3126145 470.82019043 581.59591675 C471.55730446 585.62484701 472.30100001 589.65252693 473.04705811 593.67980957 C474.24136401 600.12722681 475.42980233 606.5756937 476.60975647 613.02575302 C477.01681297 615.24171908 477.42947499 617.4565855 477.84265137 619.67141724 C479.35818341 627.88234985 480.58742376 636.07777908 481.54785156 644.37266541 C482.45142129 651.6215011 483.83678189 658.79381989 485.14453125 665.97851562 C486.26121999 672.25732071 487.19828611 678.51086681 487.875 684.8515625 C489.24660154 697.4141526 491.78823299 709.80058613 494.11376953 722.21362305 C496.22196733 733.50440008 498.23324646 744.72139186 499.37303162 756.15525818 C499.91510851 761.54611916 500.83933907 766.72903514 502.0625 772 C504.08718128 781.32389787 504.76999559 790.47781732 505 800 C501.46417226 795.8017221 498.58319074 791.33350942 495.6875 786.6875 C495.1711499 785.86499756 494.6547998 785.04249512 494.12280273 784.19506836 C491.18360415 779.50882722 488.26009935 774.81282048 485.3359375 770.1171875 C484.07832966 768.0988308 482.82051505 766.08060292 481.5625 764.0625 C480.93077881 763.04873291 480.29905762 762.03496582 479.64819336 760.99047852 C475.06557669 753.65583154 470.37604379 746.39760039 465.63745117 739.16308594 C461.6381088 733.03606629 457.80220625 726.82243974 454.01367188 720.56347656 C451.00798575 715.61127157 447.91590091 710.72617356 444.75 705.875 C440.31149187 699.07244281 435.98202409 692.20681851 431.6875 685.3125 C426.15108343 676.42463075 420.56248496 667.57242435 414.9296875 658.74536133 C411.0761724 652.70279891 407.26270161 646.63692005 403.4753418 640.55273438 C400.85216146 636.34524628 398.19003373 632.1650238 395.5 628 C390.17586687 619.75474406 384.99570229 611.42066892 379.81005859 603.08789062 C373.98828231 593.73622336 368.09898375 584.4295739 362.17724609 575.14086914 C358.71914928 569.71283336 355.27926111 564.27445708 351.875 558.8125 C343.63115876 545.58849359 335.28509585 532.43138372 326.875 519.3125 C320.85124439 509.91470561 314.88945104 500.48237065 309 491 C303.48641195 482.13506083 297.92689865 473.30149628 292.3125 464.5 C287.33253431 456.69279546 282.39883765 448.85835342 277.5 441 C270.93822529 430.47536773 264.29943731 420.00154424 257.62573242 409.54760742 C252.79637297 401.9797495 247.98122903 394.40297734 243.1875 386.8125 C242.67106934 385.99499268 242.15463867 385.17748535 241.62255859 384.33520508 C238.44142944 379.29540018 235.27671548 374.24573648 232.125 369.1875 C228.22689478 362.93300675 224.27620553 356.71309471 220.3125 350.5 C215.33249271 342.69282231 210.3988432 334.85834922 205.5 327 C199.50382402 317.38268617 193.44133219 307.80966214 187.34765625 298.25390625 C180.51315784 287.53540759 173.73023804 276.78425788 167 266 C158.7087422 252.71713403 150.32565213 239.49452895 141.875 226.3125 C136.67174699 218.1954497 131.50775737 210.05723684 126.4140625 201.87109375 C123.67069335 197.46414372 120.89862803 193.07544886 118.125 188.6875 C117.62339355 187.89384033 117.12178711 187.10018066 116.60498047 186.2824707 C115.07028781 183.8547901 113.53521425 181.42735079 112 179 C100.58953242 160.95873473 100.58953242 160.95873473 95 152 C87.06838464 139.29005453 79.04759642 126.63675816 71 114 C62.95240094 101.3632377 54.9319005 88.70977132 47 76 C39.5658429 64.09010061 32.10095928 52.20148599 24.4375 40.4375 C20.14015861 33.83988984 16.01126146 27.15172123 11.93798828 20.41381836 C8.57998111 14.88158388 5.05039641 9.507586 1.36328125 4.1875 C0 2 0 2 0 0 Z " fill="#29235C" transform="translate(194,410)"/>
<path d="M0 0 C-1.56478858 4.44061624 -3.91139377 8.24624781 -6.4375 12.1875 C-7.3406957 13.61404429 -8.24300627 15.04114929 -9.14453125 16.46875 C-9.6132666 17.20996094 -10.08200195 17.95117188 -10.56494141 18.71484375 C-12.95314965 22.51777487 -15.28906742 26.35231377 -17.625 30.1875 C-18.55725305 31.71616939 -19.48954393 33.2448157 -20.421875 34.7734375 C-20.86337891 35.49756836 -21.30488281 36.22169922 -21.75976562 36.96777344 C-25.77603679 43.54876579 -29.82566664 50.1091577 -33.890625 56.66015625 C-40.93004471 68.00787835 -47.90513126 79.39269022 -54.83984375 90.8046875 C-58.53543138 96.88498332 -62.26270252 102.94525168 -66 109 C-67.33362743 111.16648566 -68.66695384 113.33315663 -70 115.5 C-70.99966797 117.12421875 -70.99966797 117.12421875 -72.01953125 118.78125 C-73.28834735 120.84338898 -74.55662629 122.90585863 -75.82421875 124.96875 C-80.03611948 131.82081491 -84.26508326 138.66214115 -88.5 145.5 C-94.17897795 154.6705037 -99.85449893 163.84282917 -105.47265625 173.05078125 C-112.12811268 183.95877397 -118.83959137 194.83099225 -125.57080078 205.69238281 C-129.55923788 212.13220302 -133.52729339 218.58447743 -137.47265625 225.05078125 C-142.99961211 234.10912847 -148.55997035 243.14563943 -154.15185547 252.1640625 C-158.63387199 259.39716503 -163.07628928 266.65385828 -167.5078125 273.91796875 C-171.61116689 280.64352019 -175.74894035 287.34786588 -179.8828125 294.0546875 C-183.20554547 299.44908393 -186.51953873 304.84848426 -189.8190918 310.25708008 C-194.9005711 318.58599183 -200.02117913 326.88975651 -205.1628418 335.18164062 C-208.62915359 340.77534549 -212.07452976 346.38120254 -215.5 352 C-222.16540378 362.93053375 -228.91881637 373.80636801 -235.66601562 384.68652344 C-242.69723435 396.02653249 -249.69828683 407.38380338 -256.64404297 418.77636719 C-266.11549919 434.30860041 -275.63985044 449.80713199 -285.21777344 465.27392578 C-290.35959072 473.57821465 -295.49351976 481.88706763 -300.578125 490.2265625 C-304.89110446 497.29920827 -309.21372511 504.36315934 -313.625 511.375 C-318.67775831 519.41121265 -323.57913853 527.53853552 -328.49282837 535.66009521 C-333.49005028 543.91549543 -338.56309383 552.11590473 -343.74902344 560.25439453 C-347.82878773 566.67728566 -351.74330836 573.19267679 -355.63964844 579.72802734 C-359.11746308 585.55365194 -362.67262507 591.32403362 -366.28393555 597.06762695 C-371.2663215 604.99789975 -376.12749532 613.00193244 -381 621 C-389.49256226 634.93469712 -398.06568791 648.8181169 -406.66601562 662.68652344 C-412.75294065 672.50356762 -418.82369307 682.32945563 -424.83642578 692.19213867 C-428.36628637 697.97679818 -431.92887966 703.74073683 -435.5 709.5 C-444.41678633 723.88444213 -453.20991418 738.34336847 -462.00610352 752.80175781 C-465.7257054 758.91337835 -469.45670883 765.01744976 -473.21484375 771.10546875 C-474.46118895 773.12634795 -475.703022 775.15001385 -476.94140625 777.17578125 C-480.5581619 783.085744 -484.2158877 788.96807469 -487.9375 794.8125 C-488.32736084 795.42988037 -488.71722168 796.04726074 -489.11889648 796.68334961 C-490.05190466 798.14012267 -491.02221055 799.57289811 -492 801 C-492.33 801 -492.66 801 -493 801 C-492.49247533 794.06828153 -491.83991202 787.15618759 -491.0625 780.25 C-490.98789551 779.55398682 -490.91329102 778.85797363 -490.83642578 778.14086914 C-490.44775103 774.78308493 -489.92876631 771.7505435 -488.99609375 768.484375 C-487.95636779 764.5797107 -487.77629817 760.79668846 -487.58984375 756.765625 C-487.11511794 746.94215131 -485.34146259 737.40748335 -483.5625 727.75 C-483.24589572 725.99754902 -482.93013713 724.24494503 -482.61523438 722.4921875 C-480.13765208 708.72636148 -480.13765208 708.72636148 -479.36669922 704.65820312 C-478.38233264 699.25376606 -477.85672763 693.99360709 -477.59375 688.50390625 C-477.11657877 678.82990669 -475.29347153 669.43967407 -473.5 659.9375 C-471.54681469 649.56766651 -469.84246603 639.48251097 -469.30957031 628.92504883 C-468.65841701 620.66906175 -467.05341176 612.52578258 -465.625 604.375 C-465.00894835 600.82100581 -464.39734861 597.26626882 -463.7890625 593.7109375 C-463.63847885 592.83107681 -463.4878952 591.95121613 -463.33274841 591.04469299 C-461.09374237 577.81565907 -459.29480034 564.52321631 -457.61865234 551.21240234 C-455.76258858 536.57619399 -453.37113152 522.07983898 -450.7328949 507.56678772 C-450.37338072 505.58876224 -450.01625914 503.61030239 -449.65917969 501.63183594 C-449.25204409 499.38866958 -448.83755125 497.14680733 -448.41113281 494.90722656 C-447.41213515 489.42474217 -446.85659737 484.08432472 -446.58984375 478.515625 C-446.10689476 468.78275209 -444.3251562 459.3189606 -442.5625 449.75 C-442.24589572 447.99754902 -441.93013713 446.24494503 -441.61523438 444.4921875 C-441.01332423 441.14622822 -440.4095651 437.80061379 -439.80395508 434.45532227 C-437.63106459 422.83099523 -437.63106459 422.83099523 -436.6875 411.0625 C-436.30377007 402.02327594 -434.54827745 393.22772132 -432.94042969 384.34155273 C-431.47611381 376.12084128 -430.31817651 367.92762779 -429.4375 359.625 C-428.26720908 348.70283262 -426.53882625 337.96616663 -424.57226562 327.16259766 C-421.72215924 311.41162575 -418.94687184 295.74607385 -417.7355957 279.77539062 C-417.15983841 272.66753762 -415.94318856 265.79320681 -414.53100586 258.80883789 C-412.80194277 250.2227863 -411.59728513 241.59706193 -410.41064453 232.92236328 C-409.95987256 229.71443197 -409.4808936 226.51155646 -408.99609375 223.30859375 C-408.82215088 222.15875 -408.64820801 221.00890625 -408.46899414 219.82421875 C-408.11564257 217.48953385 -407.76196599 215.15489811 -407.40795898 212.8203125 C-406.44275807 206.34555794 -405.66104951 199.89237807 -405.0625 193.375 C-404.21158312 184.54446354 -401.78127179 176.39629221 -399 168 C-398.67257812 166.989375 -398.34515625 165.97875 -398.0078125 164.9375 C-397.35644178 162.9523702 -396.68218702 160.97475189 -396 159 C-395.34 159 -394.68 159 -394 159 C-393.90976562 158.31679688 -393.81953125 157.63359375 -393.7265625 156.9296875 C-392.83127914 153.31967395 -391.18178048 150.33934451 -389.375 147.125 C-384.49529924 138.2050343 -380.19088174 129.07334599 -376.1484375 119.74609375 C-375.68739624 118.68249634 -375.68739624 118.68249634 -375.21704102 117.59741211 C-374.63480068 116.24733741 -374.05681567 114.89541544 -373.48413086 113.54125977 C-371.88912477 109.82182697 -370.06614078 106.39789678 -368.01245117 102.90209961 C-366.89617276 100.80493899 -366.04110446 98.68965989 -365.1875 96.47265625 C-362.52753145 89.60583313 -359.23595722 83.04523016 -356 76.4375 C-349.13478464 62.38311837 -349.13478464 62.38311837 -343 48 C-335.9934513 47.78109286 -329.14972314 47.98267946 -322.1953125 48.875 C-279.12007757 54.31390737 -234.10524925 54.28543567 -191 49 C-190.00806641 48.88253418 -189.01613281 48.76506836 -187.99414062 48.64404297 C-181.9692216 47.9117147 -175.98563194 47.00069708 -170 46 C-168.83210938 45.80615723 -167.66421875 45.61231445 -166.4609375 45.41259766 C-158.6855443 44.11998729 -158.6855443 44.11998729 -150.91455078 42.80126953 C-144.6940295 41.74147702 -138.48429804 40.78862838 -132.22265625 40.00390625 C-126.27241536 39.2313334 -120.59364692 38.08302546 -114.8125 36.5 C-108.24363785 34.77178236 -101.75657549 33.30161895 -95.01953125 32.359375 C-93.00968627 32.20044857 -93.00968627 32.20044857 -92 31 C-90.00548794 30.57738235 -88.00387465 30.1882265 -86 29.8125 C-79.46687782 28.46450135 -73.36138624 26.51754343 -67.12695312 24.1574707 C-63.63928208 22.85464866 -60.26663709 21.79725985 -56.61328125 21.0625 C-51.48553873 19.99089162 -46.81895178 18.08275286 -42 16.0625 C-37.17285342 14.06109077 -32.38584224 12.08504857 -27.40234375 10.50390625 C-22.89093847 9.04030513 -18.7663757 7.0547874 -14.5625 4.875 C-13.85673828 4.51535156 -13.15097656 4.15570313 -12.42382812 3.78515625 C-10.61333562 2.8617532 -8.80639642 1.93139052 -7 1 C-4.53721199 -0.231394 -2.7204945 -0.07159196 0 0 Z " fill="#29235C" transform="translate(1347,409)"/>
<path d="M0 0 C5.68400427 1.33741277 8.00084289 5.35496398 11 10 C12.17889536 12.01372397 13.34503705 14.03495492 14.5 16.0625 C16.83596072 20.15043126 19.19632666 23.73666569 22.38842773 27.18920898 C24.10312355 29.11587144 25.67978798 31.10931964 27.25390625 33.15234375 C27.86766113 33.94648682 28.48141602 34.74062988 29.11376953 35.55883789 C29.73622559 36.36442139 30.35868164 37.17000488 31 38 C32.15389213 39.47738771 33.30881763 40.95396899 34.46484375 42.4296875 C35.03299805 43.15720215 35.60115234 43.8847168 36.18652344 44.63427734 C37.38675485 46.17021207 38.58935089 47.70430109 39.79394531 49.23681641 C42.41141294 52.58459495 45.00100091 55.91347903 47.33203125 59.46875 C51.83446336 66.29117259 55.21477746 68.7574642 63 71 C64.44381819 71.48902967 65.88502987 71.98579111 67.32421875 72.48828125 C76.40281003 75.65164865 76.40281003 75.65164865 85.70703125 78.03515625 C89.22360109 78.77997602 92.33868882 79.82445054 95.625 81.3125 C100.20393127 83.25578214 104.77805254 85.1948884 109.4375 86.9375 C110.57058594 87.37964844 111.70367188 87.82179688 112.87109375 88.27734375 C123.23605095 90.89723393 134.73791198 85.61872914 144.25 82 C158.14212904 76.78299875 158.14212904 76.78299875 164.93505859 75.43505859 C172.9974372 73.73641132 183.82875911 71.34929116 188.65234375 64.19921875 C189.09707031 63.47347656 189.54179688 62.74773437 190 62 C191.08049108 60.50692064 192.16177922 59.01439323 193.2512207 57.52783203 C196.75628619 52.71324941 200.1359921 47.80721897 203.546875 42.92578125 C204.15982422 42.04881592 204.77277344 41.17185059 205.40429688 40.26831055 C206.60527125 38.54834368 207.80457974 36.827212 209.00195312 35.10473633 C212.08924441 30.67539491 215.24259686 26.3147801 218.5 22.00927734 C221.19979644 18.3928508 223.78241059 14.69363973 226.375 11 C226.92027344 10.22527344 227.46554687 9.45054687 228.02734375 8.65234375 C229.35266134 6.7689977 230.67686209 4.88487769 232 3 C233.22311267 6.669338 232.66449142 8.41791515 231.8203125 12.171875 C231.41619141 14.00492187 231.41619141 14.00492187 231.00390625 15.875 C230.56884766 17.793125 230.56884766 17.793125 230.125 19.75 C229.56294255 22.26514292 229.00298185 24.78075549 228.4453125 27.296875 C228.19281738 28.41416992 227.94032227 29.53146484 227.68017578 30.68261719 C226.4245939 36.80639559 225.82868078 42.76746476 225.76171875 49.01171875 C225.75197021 49.76961197 225.74222168 50.52750519 225.73217773 51.30836487 C225.45002703 79.01820894 226.94363912 106.83151492 238.04296875 132.65625 C239.14527601 135.35577799 240.0037097 138.09260793 240.875 140.875 C242.61155017 146.21506338 244.89862658 151.06426423 247.53515625 156.015625 C248.66447779 158.31642942 249.53685976 160.45193953 250.375 162.85546875 C252.00124357 167.3114078 254.35348844 171.10393252 256.9375 175.0625 C257.80209617 176.40670723 258.66539015 177.75175298 259.52734375 179.09765625 C259.94717529 179.75088867 260.36700684 180.40412109 260.79956055 181.07714844 C261.92871788 182.88582104 262.98104172 184.71807557 264.015625 186.58203125 C265.40921864 188.982414 266.76449058 191.13256197 268.39453125 193.3515625 C268.79220703 193.89296875 269.18988281 194.434375 269.59960938 194.9921875 C270.41891418 196.09514856 271.24731858 197.19139963 272.08398438 198.28125 C273.87315002 200.74540565 275.00377813 202.39738845 274.984375 205.4921875 C273.73022876 208.68727434 272.17380352 211.5370711 270.4375 214.5 C270.08034912 215.11238525 269.72319824 215.72477051 269.35522461 216.35571289 C266.33351026 221.50899849 263.2052987 226.59657135 260.0546875 231.671875 C257.90159662 235.15939102 255.78947391 238.66906915 253.6875 242.1875 C250.32471874 247.81215635 246.92306791 253.41183868 243.5 259 C238.61878018 266.97176104 233.79739214 274.97759872 229 283 C227.042885 286.27156418 225.08442247 289.54231732 223.125 292.8125 C222.37005249 294.07344482 222.37005249 294.07344482 221.59985352 295.35986328 C219.06530433 299.58586501 216.51482836 303.80082197 213.9296875 307.99609375 C213.19081299 309.19625122 213.19081299 309.19625122 212.43701172 310.4206543 C211.51198584 311.92008887 210.58414605 313.41779301 209.65283203 314.91333008 C203.6995445 324.42416733 203.6995445 324.42416733 201.0625 335.1875 C200.27628193 342.41233232 199.08027532 349.53262984 197.8125 356.6875 C195.72551626 368.6373196 193.71351753 380.59846251 191.77719116 392.57363892 C191.47333219 394.44630178 191.16682122 396.31853676 190.85733032 398.1902771 C189.01998416 409.31883876 187.54638819 420.39412525 186.6686554 431.64305115 C186.27343066 436.60287271 185.64955968 441.33077382 184.5625 446.1875 C182.72765167 454.4721182 181.93433801 462.84796057 181.09008789 471.28393555 C180.48703303 477.17538354 179.69473997 482.90596865 178.45727539 488.69702148 C177.60138362 493.00755384 177.22436251 497.37306522 176.7890625 501.7421875 C176.71429687 502.43828125 176.63953125 503.134375 176.5625 503.8515625 C176.50191406 504.45822754 176.44132813 505.06489258 176.37890625 505.68994141 C175.92492533 508.45770396 175.20700661 511.13936218 174.51266479 513.85482788 C173.69136766 517.29142764 173.14214977 520.76052062 172.59765625 524.25 C172.4744249 525.02520996 172.35119354 525.80041992 172.22422791 526.59912109 C171.9645235 528.23930328 171.70662282 529.87977198 171.45043945 531.52050781 C171.07203563 533.93905358 170.68590281 536.35626641 170.29882812 538.7734375 C168.88113987 547.72735359 167.64492453 556.68734792 166.55859375 565.6875 C164.91534431 579.23779515 162.70750745 592.68127296 160.47949219 606.14550781 C158.44727053 618.46513402 156.60200862 630.77162808 155.11256409 643.16912842 C153.7323981 654.5033686 151.85585066 665.75041902 149.97680664 677.01074219 C148.19334156 687.73997706 146.67280259 698.4135277 145.67208862 709.24557495 C145.12812419 715.04052556 144.29595698 720.68358207 143.0625 726.375 C140.42093903 739.42371927 138.64153803 752.57769514 137.28588867 765.8190918 C136.54108426 773.0904992 135.45242947 780.19789788 134.0625 787.375 C132.43452174 795.82626551 131.35051246 804.24922575 130.5 812.8125 C129.2935976 824.91195796 127.55569736 836.84534458 125.52490234 848.83105469 C124.96535128 852.20918157 124.44183267 855.59152768 123.92578125 858.9765625 C123.74974365 860.12036377 123.57370605 861.26416504 123.39233398 862.44262695 C123.05524741 864.63838252 122.72250991 866.83481153 122.39477539 869.03198242 C122.16455688 870.51081909 122.16455688 870.51081909 121.9296875 872.01953125 C121.79804199 872.88682861 121.66639648 873.75412598 121.53076172 874.64770508 C120.99452045 877.02428493 120.18274042 878.87946722 119 881 C111.62038387 849.8799641 111.62038387 849.8799641 110.375 836.81640625 C109.97461255 832.74162982 109.39893132 828.72855209 108.75 824.6875 C108.62906982 823.92872559 108.50813965 823.16995117 108.38354492 822.38818359 C107.61288269 817.62044037 106.80603399 812.85941374 105.98435974 808.10020447 C103.17166672 791.79620769 100.58127301 775.53119529 98.70541382 759.0909729 C96.81218867 742.56540576 94.32828861 726.0799125 90.92578125 709.79296875 C89.91111249 704.80367736 89.35242689 699.80929872 88.8125 694.75 C87.40681357 682.34467263 85.53136864 670.02382606 83.625 657.6875 C81.43157172 643.49257118 79.30534593 629.29568859 77.375 615.0625 C75.70703011 602.77425703 73.8329703 590.54032068 71.80419922 578.3059082 C70.15210859 568.23673431 68.81308372 558.14329988 67.52587891 548.02197266 C66.25508163 538.30146565 64.51753724 528.71201369 62.65112305 519.09057617 C61.37474352 512.39699861 60.4706264 505.9346685 60.19238281 499.12109375 C60.02122106 496.3442767 59.68836499 493.73196027 59.203125 490.99609375 C58.2001666 485.19060253 57.24575607 479.37888981 56.30859375 473.5625 C56.00077153 471.66013675 55.69282698 469.75779329 55.38476562 467.85546875 C54.90776685 464.90850068 54.43128771 461.9614529 53.95629883 459.01416016 C53.49196265 456.13418442 53.02547058 453.25456481 52.55859375 450.375 C52.41691269 449.49271729 52.27523163 448.61043457 52.1292572 447.70141602 C51.99564285 446.87955811 51.8620285 446.0577002 51.72436523 445.2109375 C51.60826401 444.49212402 51.49216278 443.77331055 51.37254333 443.03271484 C51.12359149 441.67435444 50.82566576 440.32409811 50.48075867 438.98687744 C49.99317358 436.97178781 49.75716045 435.06368942 49.58349609 432.99902344 C49.47927841 431.83333832 49.47927841 431.83333832 49.37295532 430.644104 C49.261819 429.38941315 49.261819 429.38941315 49.1484375 428.109375 C48.10487037 417.07456979 46.41948109 406.18371824 44.625 395.25 C44.31044163 393.30371226 43.99640028 391.3573409 43.68286133 389.41088867 C41.91013539 378.43517035 40.10943262 367.46339845 38.19873047 356.51074219 C37.50608391 352.45946964 36.91311834 348.45472815 36.59765625 344.35546875 C35.75063258 333.39370161 32.48676385 325.48550959 27 316 C26.30088334 314.75848748 25.60294308 313.51631167 24.90625 312.2734375 C23.57416155 309.91257277 22.22610836 307.56199701 20.86328125 305.21875 C16.09958056 296.98963182 11.69630169 288.56251217 7.26611328 280.15087891 C4.85127335 275.5743594 2.37793914 271.04083131 -0.22265625 266.56640625 C-1 265 -1 265 -1 263 C-1.66 263 -2.32 263 -3 263 C-3.37382813 262.071875 -3.74765625 261.14375 -4.1328125 260.1875 C-6.3809206 254.95153295 -9.14588872 249.99690167 -11.875 245 C-12.4407373 243.95851807 -13.00647461 242.91703613 -13.58935547 241.84399414 C-18.21373567 233.36256193 -22.95172933 224.94723811 -27.77294922 216.57617188 C-35.0802849 203.80159324 -35.0802849 203.80159324 -34.90234375 199.80859375 C-33.75364356 197.50622064 -32.34040055 195.9262549 -30.5625 194.0625 C-23.10846197 185.88967973 -16.57726284 177.44159581 -11.125 167.8125 C-10.76801025 167.18400146 -10.41102051 166.55550293 -10.04321289 165.90795898 C-7.23074562 160.77840597 -5.10293573 155.45158228 -3 150 C-2.31057318 148.27186504 -1.62046577 146.54400145 -0.9296875 144.81640625 C-0.24390728 143.06545029 0.44098645 141.31414687 1.125 139.5625 C1.64513672 138.26602539 1.64513672 138.26602539 2.17578125 136.94335938 C4.27682984 131.52973801 5.6331008 126.32899076 6.55712891 120.59790039 C6.95148527 118.28458941 7.46278019 116.07310651 8.0703125 113.80859375 C11.22481241 101.23428526 11.38604013 88.75982008 11.375 75.875 C11.37663147 74.98779266 11.37826294 74.10058533 11.37994385 73.18649292 C11.37471246 47.99009901 8.08695467 23.93738582 0 0 Z " fill="#29235C" transform="translate(656,272)"/>
<path d="M0 0 C0.73049561 -0.0213501 1.46099121 -0.0427002 2.21362305 -0.06469727 C7.24317911 -0.09717649 7.24317911 -0.09717649 9.64453125 1.3671875 C22.90489714 22.74342951 22.05739414 53.5243892 22.125 77.75 C22.12942612 79.14863785 22.12942612 79.14863785 22.13394165 80.57553101 C22.14323647 93.48242347 21.69595742 105.79902439 18.31640625 118.33349609 C17.57509412 121.15292448 17.06412274 124.01560284 16.5 126.875 C14.43262559 135.58750644 11.05283052 143.91956772 7.8125 152.25 C7.50368896 153.06831299 7.19487793 153.88662598 6.87670898 154.72973633 C4.60651479 160.62538782 1.92346041 166.10207162 -1.25 171.5625 C-1.7246167 172.38137695 -2.1992334 173.20025391 -2.68823242 174.04394531 C-7.63914434 182.35711056 -13.60583891 189.41621714 -20.24609375 196.421875 C-22.11289792 198.37668843 -22.11289792 198.37668843 -24.1875 201.25 C-23.88583094 205.60911792 -21.89528456 209.29244993 -19.9375 213.125 C-19.59323975 213.80626953 -19.24897949 214.48753906 -18.89428711 215.18945312 C-12.80681873 227.06257533 -6.05239755 238.60222084 0.6484375 250.13671875 C1.07068604 250.87019531 1.49293457 251.60367188 1.92797852 252.359375 C2.70223931 253.70355365 3.48353116 255.04371726 4.27319336 256.37890625 C6.19089877 259.71769106 6.8125 261.28268458 6.8125 265.25 C7.4725 265.25 8.1325 265.25 8.8125 265.25 C9.39257812 266.34957031 9.97265625 267.44914062 10.5703125 268.58203125 C14.44865782 275.92583087 18.33029817 283.26600541 22.32958984 290.54492188 C23.26596493 292.25302789 24.1989599 293.96299519 25.12719727 295.67553711 C27.90366401 300.79666331 30.72967673 305.88535946 33.609375 310.94921875 C34.59451544 312.69133093 35.5796514 314.43344582 36.56396484 316.17602539 C37.23370318 317.35748312 37.90659677 318.5371574 38.58251953 319.71508789 C43.9186704 329.02575999 46.66296867 336.15522233 47.625 346.875 C48.43965244 354.97683879 49.69695767 362.97419322 51.0625 371 C51.50005189 373.57811621 51.93759075 376.15623459 52.375 378.734375 C52.48895615 379.40548309 52.60291229 380.07659119 52.72032166 380.76803589 C54.07369679 388.75827678 55.38073906 396.75582705 56.6619873 404.75793457 C56.92502814 406.39462421 57.1903379 408.03095113 57.45812988 409.66687012 C58.69597214 417.23424111 59.85953598 424.71547667 60.3046875 432.37890625 C60.72528627 439.40876982 61.93757197 446.20323759 63.28140259 453.09954834 C65.56727015 464.85234665 67.55860935 476.58845813 68.96240234 488.48413086 C69.06375488 489.34272705 69.16510742 490.20132324 69.26953125 491.0859375 C69.35178955 491.82376465 69.43404785 492.5615918 69.51879883 493.32177734 C69.78906439 495.46264162 69.78906439 495.46264162 70.8125 498.25 C70.9195708 500.08210027 70.99765877 501.91591953 71.0625 503.75 C71.50784406 510.47064673 72.63193163 516.89761261 73.9375 523.5 C76.53328038 536.78927744 78.41594103 550.14964892 80.25 563.5625 C82.34913529 578.90197218 84.52747628 594.21599465 87 609.5 C88.98106036 621.75763111 90.76302275 634.01477465 92.34228516 646.33203125 C93.50220139 655.25483444 94.89651582 664.12607399 96.375 673 C97.99110687 682.71003272 99.37604345 692.40105667 100.4375 702.1875 C101.29600077 710.09641624 102.36056054 717.81592875 103.92578125 725.6171875 C105.0964837 731.56629555 106.06675617 737.55061603 107.04302979 743.53408813 C107.36161016 745.48068508 107.68628719 747.42628127 108.01123047 749.37182617 C109.15012762 756.38572204 110.05873321 763.36005718 110.74609375 770.4296875 C111.76122251 780.73326073 113.49921149 790.87386066 115.3125 801.0625 C115.93015964 804.56847524 116.54432155 808.07505134 117.15625 811.58203125 C117.30273987 812.42099945 117.44922974 813.25996765 117.60015869 814.12435913 C119.11815127 822.89138839 120.39565441 831.68049212 121.453125 840.515625 C122.83760928 851.98641769 124.96674817 863.06386338 127.91894531 874.24316406 C130.15504935 883.12910176 130.82817398 890.90960875 126 899.0625 C125.49855469 899.93519531 124.99710938 900.80789063 124.48046875 901.70703125 C122.8125 904.25 122.8125 904.25 120.9453125 906.5390625 C118.13470109 910.11152462 115.84410104 913.92346032 113.5 917.8125 C113.01724609 918.60519287 112.53449219 919.39788574 112.03710938 920.21459961 C109.85838618 923.80447513 107.70633153 927.40405572 105.64453125 931.0625 C105.03996094 932.135 104.43539062 933.2075 103.8125 934.3125 C103.296875 935.25222656 102.78125 936.19195313 102.25 937.16015625 C100.8125 939.25 100.8125 939.25 97.8125 940.25 C92.00094668 910.66523382 92.00094668 910.66523382 89.5625 896.8125 C89.41200195 895.97130615 89.26150391 895.1301123 89.10644531 894.26342773 C88.23765403 889.24640213 87.56906614 884.23388639 86.984375 879.17578125 C85.48217573 866.53495662 82.98752241 854.03498729 80.69873047 841.51855469 C78.66032731 830.34084757 76.68335601 819.2330407 75.57116699 807.92204285 C74.56004161 798.08968415 72.61655046 788.39892505 70.8125 778.6875 C68.78121143 767.7326581 66.77555701 756.83894068 65.59667969 745.75621033 C64.4993839 735.84735212 62.58207107 726.05610681 60.8125 716.25 C56.80355009 694.03433894 56.80355009 694.03433894 55.80859375 684.69921875 C54.70908371 674.39529431 52.75659145 664.24720578 50.875 654.0625 C48.63285416 641.91676594 46.55455265 629.79784192 44.95596313 617.54946899 C43.41894457 605.962089 41.28913135 594.47844629 39.21655273 582.97729492 C35.7958717 563.93629022 35.7958717 563.93629022 34.81640625 554.7734375 C33.68151616 544.15874088 31.70276193 533.68886037 29.8125 523.1875 C27.73424565 511.62111424 25.73136506 500.11324819 24.3671875 488.43920898 C23.10182058 478.33827603 21.0742989 468.3224306 19.27148438 458.30688477 C17.4453538 448.1328473 15.69442904 438.00898116 14.59667969 427.72891235 C13.49303508 417.80946618 11.57975938 408.00551905 9.8125 398.1875 C9.09931146 394.2182968 8.39057433 390.24835125 7.6875 386.27734375 C7.51795807 385.32535095 7.34841614 384.37335815 7.17373657 383.39251709 C6.17985271 377.70463121 5.39626639 372.03211096 4.7734375 366.29296875 C4.10785199 360.65534402 3.18665287 356.57811509 0.4375 351.625 C0.09517334 350.99078125 -0.24715332 350.3565625 -0.59985352 349.703125 C-1.35728651 348.30733868 -2.12637993 346.91783001 -2.90576172 345.53417969 C-4.32242327 343.00955388 -5.69616568 340.4641695 -7.06640625 337.9140625 C-12.34679192 328.11455811 -17.76775634 318.3952113 -23.2421875 308.703125 C-26.70492104 302.5564253 -30.08786537 296.37209766 -33.34375 290.11328125 C-36.9479828 283.20251711 -40.52141731 276.4788998 -44.9921875 270.078125 C-46.8017163 267.31061036 -47.92550469 264.29982201 -49.1875 261.25 C-50.75146978 258.38070143 -52.35363172 255.53722552 -53.98046875 252.703125 C-55.1875 250.25 -55.1875 250.25 -55.1875 247.25 C-55.8475 247.25 -56.5075 247.25 -57.1875 247.25 C-58.31761652 245.0441576 -59.44165788 242.83554973 -60.5625 240.625 C-60.87960937 240.00753906 -61.19671875 239.39007813 -61.5234375 238.75390625 C-63.42342803 234.99350833 -64.95538504 231.29482184 -66.1875 227.25 C-66.8475 227.25 -67.5075 227.25 -68.1875 227.25 C-70.85416667 221.91666667 -73.52083333 216.58333333 -76.1875 211.25 C-76.5602002 210.55028076 -76.93290039 209.85056152 -77.31689453 209.12963867 C-78.1875 207.25 -78.1875 207.25 -78.0625 205.28515625 C-76.88955513 202.55701215 -75.23084495 200.84081664 -73.1875 198.6875 C-69.05530385 194.23442016 -65.19460673 189.63446863 -61.3828125 184.90625 C-59.32804784 182.42005788 -57.19095288 180.05339589 -55 177.6875 C-50.99818934 173.21210228 -48.09657656 168.48194122 -45.1875 163.25 C-44.28064453 161.80753906 -44.28064453 161.80753906 -43.35546875 160.3359375 C-35.67882383 147.4052575 -32.06502603 132.67613465 -28.1875 118.25 C-27.98108887 117.49831543 -27.77467773 116.74663086 -27.56201172 115.97216797 C-19.34131564 83.00098907 -21.75349434 48.37857064 -25.72998047 15.09082031 C-26.23956628 10.81290994 -26.71985308 6.53266123 -27.1875 2.25 C-18.45737451 -0.05158918 -8.9963759 0.13980008 0 0 Z " fill="#B1B0B0" transform="translate(646.1875,269.75)"/>
<path d="M0 0 C-0.99 0.33 -1.98 0.66 -3 1 C-2.39414063 1.969375 -1.78828125 2.93875 -1.1640625 3.9375 C-0.76453369 4.57679443 -0.36500488 5.21608887 0.04663086 5.87475586 C0.94570728 7.31317899 1.84496377 8.75148957 2.74438477 10.18969727 C5.00166806 13.7997066 7.25678043 17.41100148 9.50390625 21.02734375 C13.67049892 27.72601351 17.88343572 34.38872411 22.1875 41 C28.00969089 49.94795345 33.65001034 59.00717685 39.296875 68.06640625 C44.01461705 75.63353791 48.77947252 83.17059465 53.54833984 90.70556641 C56.03473531 94.63545955 58.51715818 98.56786114 61 102.5 C64.02216697 107.28596062 67.04493783 112.07153502 70.0703125 116.85546875 C74.69048687 124.16300771 79.30268833 131.47490364 83.875 138.8125 C90.17779673 148.9207348 96.59539544 158.95610522 103 169 C116.78851939 190.62357358 116.78851939 190.62357358 123.31787109 201.10180664 C126.48536169 206.18360821 129.67583554 211.25058298 132.875 216.3125 C133.37644531 217.10591797 133.87789062 217.89933594 134.39453125 218.71679688 C135.92939879 221.14471395 137.46462896 223.5724013 139 226 C150.41046758 244.04126527 150.41046758 244.04126527 156 253 C164.51759074 266.64893642 173.14088672 280.23064762 181.78369141 293.80053711 C187.05418213 302.07827364 192.29718258 310.37315488 197.53222656 318.67333984 C199.51899439 321.82269071 201.50749016 324.9709487 203.49609375 328.11914062 C204.99498716 330.49206409 206.49358778 332.8651723 207.9921875 335.23828125 C210.0172005 338.44466177 212.04336185 341.65031282 214.0703125 344.85546875 C218.7306355 352.22638778 223.38383149 359.60133087 228 367 C235.03470258 378.27285169 242.09889068 389.52810062 249.3125 400.6875 C253.99895496 407.95404298 258.56540008 415.29421337 263.13989258 422.6315918 C267.39122768 429.44397214 271.67896288 436.23164438 276 443 C281.64256342 451.83921225 287.21908744 460.71815534 292.76367188 469.61914062 C296.26192406 475.23261507 299.78901982 480.82628217 303.34545898 486.40307617 C305.76353029 490.19841696 308.16260387 494.00565213 310.5625 497.8125 C315.02518616 504.88554409 319.50686901 511.94626083 324 519 C332.04774294 531.6366687 340.06810072 544.29023063 348 557 C355.4341655 568.90991284 362.89952973 580.79818311 370.5625 592.5625 C374.24134242 598.21519548 377.81521544 603.92079569 381.3125 609.6875 C387.12533716 619.27074143 393.14642539 628.71646108 399.18408203 638.15917969 C402.21106781 642.89459331 405.23131422 647.63429213 408.25 652.375 C409.12918091 653.75570679 409.12918091 653.75570679 410.02612305 655.16430664 C413.81831053 661.12605522 417.58115575 667.10516623 421.31787109 673.10180664 C424.48536169 678.18360821 427.67583554 683.25058298 430.875 688.3125 C431.37644531 689.10591797 431.87789062 689.89933594 432.39453125 690.71679688 C433.92939879 693.14471395 435.46462896 695.5724013 437 698 C439.04214399 701.22886518 441.08388926 704.45798155 443.125 707.6875 C443.62789551 708.48309326 444.13079102 709.27868652 444.64892578 710.09838867 C447.30643388 714.30618195 449.95180531 718.52108126 452.58105469 722.74658203 C457.96719748 731.40175803 463.46066182 739.98653177 468.96240234 748.56860352 C477.29740891 761.57471537 485.55488842 774.62909677 493.70458984 787.75219727 C496.06874902 791.54974829 498.50026296 795.29016299 501 799 C501 795.7 501 792.4 501 789 C501.33 789 501.66 789 502 789 C502.5 791.25 502.5 791.25 503 795 C503.20689453 796.38058594 503.20689453 796.38058594 503.41796875 797.7890625 C504.1066097 805.67350241 504.1066097 805.67350241 501.19140625 809.16796875 C499.49939462 810.48096978 497.76019421 811.73450393 495.98828125 812.9375 C492.66778802 815.22929141 489.85598623 817.79283972 486.9375 820.5625 C473.5445875 833 473.5445875 833 468 833 C466.42511618 830.88560153 465.19365109 828.92159368 463.9375 826.625 C463.1444068 825.2402103 462.35008262 823.85612506 461.5546875 822.47265625 C461.13928711 821.74062988 460.72388672 821.00860352 460.29589844 820.25439453 C458.12546005 816.47861682 455.84239899 812.77285304 453.5625 809.0625 C453.09827637 808.30396729 452.63405273 807.54543457 452.15576172 806.76391602 C446.08431068 796.85114922 439.90529197 787.00681464 433.6887207 777.18457031 C428.87864043 769.58418977 424.10402502 761.9636203 419.375 754.3125 C418.82956543 753.43037842 418.28413086 752.54825684 417.72216797 751.6394043 C415.68650279 748.34666845 413.65090084 745.05389416 411.61669922 741.76025391 C406.71991828 733.8402271 401.75111635 725.99077394 396.4855957 718.30908203 C393.84834285 714.42277922 391.54548421 710.42523739 389.29272461 706.30541992 C387.15182045 702.48737309 384.7941571 698.81240138 382.4375 695.125 C381.3749814 693.45183473 380.31248195 691.7786573 379.25 690.10546875 C378.71117187 689.25903809 378.17234375 688.41260742 377.6171875 687.54052734 C375.05145347 683.50987694 372.49242242 679.47501121 369.9375 675.4375 C369.44121094 674.65342773 368.94492187 673.86935547 368.43359375 673.06152344 C364.57943598 666.95575261 360.81735389 660.79703665 357.07177734 654.62426758 C353.98942963 649.56499251 350.80653267 644.58185407 347.5625 639.625 C342.96890831 632.60255596 338.63131366 625.44704077 334.34228516 618.23535156 C331.45541398 613.39231321 328.51355647 608.60008358 325.4375 603.875 C322.03024508 598.6378089 318.7428228 593.3404627 315.5 588 C311.97162498 582.19382858 308.3863831 576.43904489 304.6887207 570.73901367 C300.28487549 563.93063257 296.01179103 557.0404307 291.72192383 550.15991211 C287.81914462 543.90270451 283.89070672 537.66293307 279.9375 531.4375 C275.51621044 524.4689685 271.21101687 517.43498885 266.9375 510.375 C261.53300056 501.45122291 255.97372965 492.64861711 250.25830078 483.92138672 C248.20526533 480.78646453 246.16193036 477.64540543 244.125 474.5 C243.44695312 473.4584375 242.76890625 472.416875 242.0703125 471.34375 C240.50997831 468.82366308 239.05555415 466.31257909 237.63671875 463.71484375 C234.87143859 458.68562239 231.79982662 453.88224652 228.6875 449.0625 C223.28510029 440.63736351 217.9833357 432.15615606 212.75 423.625 C212.07420898 422.52349609 211.39841797 421.42199219 210.70214844 420.28710938 C210.04375977 419.21396484 209.38537109 418.14082031 208.70703125 417.03515625 C203.11015818 407.91300775 197.4550746 398.82783506 191.6875 389.8125 C187.68895187 383.55472492 183.80771411 377.22459551 179.90795898 370.9050293 C176.73832743 365.77826084 173.53357297 360.67948046 170.25 355.625 C167.24835308 350.99404383 164.37229453 346.31052677 161.5625 341.5625 C158.48739738 336.36745049 155.25732063 331.31275808 151.875 326.3125 C148.3504178 321.0993753 145.08758688 315.81038738 141.96484375 310.34375 C137.98535822 303.57150424 133.70192668 296.98381213 129.49023438 290.35449219 C127.28682319 286.87321803 125.11254248 283.37403839 122.9375 279.875 C119.4232052 274.22469066 115.82291042 268.63553474 112.1875 263.0625 C108.98843913 258.15402147 105.92280293 253.24439052 103.15234375 248.078125 C99.93814812 242.28167728 96.20257168 236.7765706 92.50390625 231.28125 C91.85168091 230.31082764 91.85168091 230.31082764 91.1862793 229.32080078 C90.34113937 228.06670187 89.49259596 226.81488655 88.63989258 225.56591797 C85.95374659 221.58736564 83.58801319 217.50560481 81.28613281 213.29443359 C79.14788603 209.47984679 76.79182787 205.80875689 74.4375 202.125 C73.3749814 200.45183473 72.31248195 198.7786573 71.25 197.10546875 C70.71117187 196.25903809 70.17234375 195.41260742 69.6171875 194.54052734 C67.05145347 190.50987694 64.49242242 186.47501121 61.9375 182.4375 C61.44121094 181.65342773 60.94492187 180.86935547 60.43359375 180.06152344 C56.57943598 173.95575261 52.81735389 167.79703665 49.07177734 161.62426758 C45.98942963 156.56499251 42.80653267 151.58185407 39.5625 146.625 C34.96979531 139.60391197 30.63353734 132.4495181 26.34448242 125.23974609 C22.75042572 119.21164709 19.02566903 113.29131778 15.203125 107.40625 C8.63879454 97.29458837 2.37158828 86.9915752 -3.90283203 76.69873047 C-7.61978842 70.60708811 -11.38575212 64.54783746 -15.1796875 58.50390625 C-17.40540726 54.95671672 -19.61427934 51.39930807 -21.8203125 47.83984375 C-22.4896582 46.76234863 -23.15900391 45.68485352 -23.84863281 44.57470703 C-25.17595328 42.437881 -26.50091359 40.2995867 -27.82324219 38.15966797 C-28.43586914 37.17498535 -29.04849609 36.19030273 -29.6796875 35.17578125 C-30.22351074 34.29833252 -30.76733398 33.42088379 -31.32763672 32.5168457 C-32.9986862 29.90907818 -32.9986862 29.90907818 -35.1965332 27.33178711 C-37 25 -37 25 -37.17578125 22.515625 C-35.43920119 18.80015138 -32.48863912 16.98554076 -29.1875 14.75 C-27.81278107 13.79182779 -26.4390961 12.83217058 -25.06640625 11.87109375 C-24.37949707 11.39397949 -23.69258789 10.91686523 -22.98486328 10.42529297 C-21.14633322 9.10507913 -19.39500426 7.72847052 -17.65234375 6.28515625 C-11.5167035 1.27372363 -8.00449506 -1.20067426 0 0 Z " fill="#B1B0B0" transform="translate(197,409)"/>
<path d="M0 0 C0 0.33 0 0.66 0 1 C-4.455 1.495 -4.455 1.495 -9 2 C-9.25910156 2.96873047 -9.25910156 2.96873047 -9.5234375 3.95703125 C-11.84077968 11.72756856 -15.22794853 18.51570211 -19.06811523 25.62915039 C-22.01783783 31.101312 -24.80695075 36.61730206 -27.4375 42.25 C-27.75493164 42.92828857 -28.07236328 43.60657715 -28.39941406 44.30541992 C-29.82985592 47.38947409 -31.20548951 50.48365852 -32.53515625 53.61328125 C-33.91109295 56.79444691 -35.41251689 59.85761741 -37 62.9375 C-38.64235324 66.19008221 -40.22883495 69.37418576 -41.4375 72.8125 C-45.22678719 83.45754956 -50.70238011 93.53808905 -56.06689453 103.45288086 C-57.59087898 106.27783579 -58.98266117 108.9479835 -60 112 C-60.66 112 -61.32 112 -62 112 C-62.3403125 113.7015625 -62.3403125 113.7015625 -62.6875 115.4375 C-63.50009513 119.19285036 -64.5780967 122.79127209 -65.77661133 126.44018555 C-68.57169067 135.15170545 -69.86988551 143.68504079 -70.83349609 152.76879883 C-71.92386536 162.91744501 -73.52549033 172.95192269 -75.19921875 183.01611328 C-76.20407009 189.06350581 -77.17323156 195.10839311 -78.0234375 201.1796875 C-78.76556889 206.47420225 -79.62147882 211.73679447 -80.54711914 217.00195312 C-82.10420762 225.87094028 -83.30441401 234.5003104 -83.7265625 243.49609375 C-84.12835873 248.64482548 -85.13589254 253.60815196 -86.18359375 258.66015625 C-86.9115072 262.30196874 -87.4340125 265.95853355 -87.9453125 269.63671875 C-88.76722254 275.525573 -89.74574742 281.36924304 -90.80102539 287.22021484 C-92.92201273 298.98286728 -94.64735483 310.70319238 -95.90161133 322.58837891 C-96.68709459 329.83308416 -97.7996035 336.96050219 -99.125 344.125 C-100.27004064 350.32132349 -101.20147561 356.31303341 -101.4375 362.625 C-102.0309864 376.31757901 -105.1292018 389.85238249 -107.60888672 403.30273438 C-110.17873224 416.88136372 -110.17873224 416.88136372 -111.4375 430.625 C-111.90818765 441.14058997 -114.03972814 451.3989155 -115.89118958 461.74307251 C-117.36966094 470.02581658 -118.7628844 478.32239361 -120.125 486.625 C-120.25457092 487.41319122 -120.38414185 488.20138245 -120.51763916 489.01345825 C-122.33000444 500.1052759 -123.76646788 511.18024037 -124.88720703 522.36572266 C-126.07320616 533.69572594 -128.26024217 544.80568491 -130.42431641 555.98193359 C-132.46255949 566.66758288 -133.98839052 577.2788812 -134.8125 588.125 C-135.66167096 599.22574196 -137.70198968 610.07472889 -139.88012695 620.97705078 C-141.33442267 628.3891064 -142.27422912 635.59423294 -142.63531494 643.14045715 C-142.98240939 649.89144415 -144.08519102 656.42441945 -145.3125 663.0625 C-145.53325195 664.30475342 -145.75400391 665.54700684 -145.98144531 666.8269043 C-146.84072578 671.65525688 -147.71973816 676.47979867 -148.60888672 681.30273438 C-150.58269038 692.01527287 -152.2581018 702.42636573 -152.7265625 713.3125 C-153.10269473 718.38491182 -154.16267896 723.22693197 -155.234375 728.19140625 C-156.81894664 736.0738417 -158.15959843 744.22156644 -157.875 752.26953125 C-158 756 -158 756 -159.14453125 757.953125 C-163.43360092 761.287952 -167.55246499 763.11472266 -172.703125 764.80078125 C-176.81462153 766.29631376 -180.68955771 768.1591115 -184.625 770.0625 C-199.07733196 777 -199.07733196 777 -205 777 C-204.41264717 767.02685674 -203.09375927 757.23519605 -201.5625 747.375 C-200.21231662 738.67115709 -198.96361125 729.99561252 -198.12109375 721.2265625 C-196.70351322 706.78795948 -194.18085227 692.48894604 -191.88623047 678.16992188 C-188.92511199 659.68269845 -188.92511199 659.68269845 -186.75866699 641.09155273 C-185.55728728 628.86064674 -183.39303631 616.73790829 -181.45898438 604.60644531 C-178.90777873 588.69140186 -178.90777873 588.69140186 -177.03125 572.6875 C-175.67424795 558.42692489 -173.15181795 544.30776454 -170.88623047 530.16992188 C-167.92511199 511.68269845 -167.92511199 511.68269845 -165.75866699 493.09155273 C-164.55728728 480.86064674 -162.39303631 468.73790829 -160.45898438 456.60644531 C-157.89420117 440.57992281 -157.89420117 440.57992281 -156 424.46484375 C-154.77476845 411.64140613 -152.53729234 398.96176619 -150.45898438 386.25463867 C-147.85463961 370.28784278 -147.85463961 370.28784278 -146.03125 354.21875 C-144.85364378 341.03377815 -142.60045718 328.00060581 -140.5 314.9375 C-137.18613968 294.57250784 -137.18613968 294.57250784 -134.75866699 274.09017944 C-133.56022176 261.88469156 -131.39621057 249.78692591 -129.45898438 237.68188477 C-126.85637359 221.38934927 -126.85637359 221.38934927 -125 205 C-123.90967045 192.89490603 -121.91983615 180.93387691 -120 168.9375 C-119.28591368 164.4683379 -118.57653737 159.99849372 -117.875 155.52734375 C-117.62204666 153.91638069 -117.62204666 153.91638069 -117.36398315 152.27287292 C-116.23366137 144.91957966 -115.3198369 137.56852321 -114.6940918 130.15464783 C-113.19876166 113.51657419 -105.15934445 98.60307549 -96.52734375 84.61328125 C-94.73006864 81.53814813 -93.13629929 78.38037 -91.5625 75.1875 C-87.94267223 67.84749642 -84.23404904 60.55508699 -80.4826355 53.28164673 C-79.83974127 52.03421349 -79.19803038 50.7861695 -78.55764771 49.53744507 C-76.40473625 45.34046966 -74.21811163 41.16287626 -72 37 C-71.66645508 36.36968872 -71.33291016 35.73937744 -70.98925781 35.08996582 C-69.9761543 33.18967514 -68.94423777 31.30085599 -67.90625 29.4140625 C-67.30103516 28.30240723 -66.69582031 27.19075195 -66.07226562 26.04541016 C-61.18106421 18.85728027 -54.22425832 15.48483746 -46 13.1875 C-41.2090755 11.76434556 -36.69558696 10.08350784 -32.125 8.0625 C-11.03297418 -1.16819727 -11.03297418 -1.16819727 0 0 Z " fill="#B1B0B0" transform="translate(1013,456)"/>
<path d="M0 0 C11.8270913 0.01442328 23.00990718 2.78619825 34.453125 5.56640625 C34.453125 9.56640625 34.453125 9.56640625 32.70703125 11.453125 C31.96324219 12.15050781 31.21945312 12.84789062 30.453125 13.56640625 C29.060987 15.47680553 27.71036636 17.41779525 26.390625 19.37890625 C23.01074418 24.35199688 19.5300018 29.23316006 15.953125 34.06640625 C12.58742469 38.62283252 9.28562189 43.20864979 6.078125 47.87890625 C2.32350111 53.33770844 -1.49737864 58.74550105 -5.359375 64.12890625 C-5.91093262 64.90339111 -6.46249023 65.67787598 -7.03076172 66.47583008 C-12.28019049 73.76616876 -16.16400947 77.19642555 -24.671875 80.19140625 C-25.47625 80.49046875 -26.280625 80.78953125 -27.109375 81.09765625 C-31.1810041 82.56760541 -35.13059237 83.73817423 -39.39453125 84.49609375 C-46.56859217 85.82042819 -53.22898774 88.65571573 -60.00585938 91.2890625 C-71.11338891 95.45696522 -81.2436253 98.31224021 -92.546875 93.56640625 C-89.70114096 92.70295703 -88.73574068 92.50631262 -85.796875 93.44140625 C-81.93443084 93.58996179 -81.43193999 93.02318429 -78.609375 90.56640625 C-77.23849788 89.25025996 -75.8841454 87.91668512 -74.546875 86.56640625 C-73.94617188 85.99019531 -73.34546875 85.41398437 -72.7265625 84.8203125 C-69.76157001 81.94174355 -66.98623884 78.95293273 -64.296875 75.81640625 C-61.36404032 72.40797676 -58.24563067 69.22297339 -55.046875 66.06640625 C-45.34384221 56.4648217 -36.80577672 45.86418978 -28.48046875 35.05859375 C-27.00541421 33.15741234 -25.51863223 31.26879361 -24.01953125 29.38671875 C-18.34185162 22.24471044 -12.89264333 14.9883089 -7.640625 7.52734375 C-6.9496875 6.55023438 -6.25875 5.573125 -5.546875 4.56640625 C-5.07765625 3.78652344 -4.6084375 3.00664062 -4.125 2.203125 C-2.546875 0.56640625 -2.546875 0.56640625 0 0 Z " fill="#B1B0B0" transform="translate(855.546875,265.43359375)"/>
<path d="M0 0 C1 3 1 3 0.3125 5.125 C-1 7 -1 7 -5 8 C-3.35 5.36 -1.7 2.72 0 0 Z " fill="#504C72" transform="translate(888,275)"/>
</svg>
