<?xml version="1.0" encoding="UTF-8"?>
<!DOCTYPE svg PUBLIC "-//W3C//DTD SVG 1.1//EN" "http://www.w3.org/Graphics/SVG/1.1/DTD/svg11.dtd">
<svg xmlns="http://www.w3.org/2000/svg" version="1.1" width="413px" height="340px" style="shape-rendering:geometricPrecision; text-rendering:geometricPrecision; image-rendering:optimizeQuality; fill-rule:evenodd; clip-rule:evenodd" xmlns:xlink="http://www.w3.org/1999/xlink">
<g><path style="opacity:0.937" fill="#aeadaf" d="M 240.5,-0.5 C 241.833,-0.5 243.167,-0.5 244.5,-0.5C 247.311,0.474989 250.311,1.14166 253.5,1.5C 253.5,2.5 253.5,3.5 253.5,4.5C 251.807,5.47486 250.307,6.80819 249,8.5C 244.887,14.947 240.387,21.1137 235.5,27C 228.333,29.1667 221.167,31.3333 214,33.5C 213.235,33.4301 212.735,33.0967 212.5,32.5C 222.613,22.0622 231.947,11.0622 240.5,-0.5 Z"/></g>
<g><path style="opacity:0.966" fill="#afaeaf" d="M 172.5,2.5 C 180.464,28.0007 176.464,51.334 160.5,72.5C 168.062,87.2887 175.895,101.955 184,116.5C 193.651,180.575 203.484,244.575 213.5,308.5C 213.66,310.199 213.494,311.866 213,313.5C 209.937,317.569 207.27,321.902 205,326.5C 203.529,328.872 202.363,328.872 201.5,326.5C 190.559,259.852 179.725,193.185 169,126.5C 159.515,108.865 150.015,91.1983 140.5,73.5C 143.81,69.022 147.31,64.6886 151,60.5C 160.276,41.73 162.776,22.0633 158.5,1.5C 162.059,1.71554 165.559,1.3822 169,0.5C 170.459,0.808222 171.626,1.47489 172.5,2.5 Z"/></g>
<g><path style="opacity:0.988" fill="#29235c" d="M 172.5,2.5 C 178.571,9.73017 184.571,17.2302 190.5,25C 197.745,27.8038 205.078,30.3038 212.5,32.5C 212.735,33.0967 213.235,33.4301 214,33.5C 221.167,31.3333 228.333,29.1667 235.5,27C 240.387,21.1137 244.887,14.947 249,8.5C 250.307,6.80819 251.807,5.47486 253.5,4.5C 248.994,20.3956 249.827,36.0622 256,51.5C 259.735,59.1376 263.568,66.6376 267.5,74C 258.886,88.7228 250.386,103.556 242,118.5C 232.993,182.054 223.493,245.387 213.5,308.5C 203.484,244.575 193.651,180.575 184,116.5C 175.895,101.955 168.062,87.2887 160.5,72.5C 176.464,51.334 180.464,28.0007 172.5,2.5 Z"/></g>
<g><path style="opacity:0.963" fill="#b0afaf" d="M 11.5,49.5 C 69.1702,142.851 127.837,235.517 187.5,327.5C 187.649,328.552 187.483,329.552 187,330.5C 183.333,333.001 180.166,336.001 177.5,339.5C 176.5,339.5 175.5,339.5 174.5,339.5C 116.528,246.211 58.1946,153.211 -0.5,60.5C -0.5,59.1667 -0.5,57.8333 -0.5,56.5C 3.02596,53.2973 7.02596,50.964 11.5,49.5 Z"/></g>
<g><path style="opacity:0.99" fill="#29235c" d="M 11.5,49.5 C 50.6783,62.6138 90.8449,68.9471 132,68.5C 138.667,81.8333 145.333,95.1667 152,108.5C 164.067,181.472 175.901,254.472 187.5,327.5C 127.837,235.517 69.1702,142.851 11.5,49.5 Z"/></g>
<g><path style="opacity:0.986" fill="#29235c" d="M 240.5,328.5 C 250.805,258.531 260.972,188.531 271,118.5C 271.687,114.42 272.687,110.42 274,106.5C 280.999,93.5046 287.166,80.1712 292.5,66.5C 333.54,70.8277 373.206,65.161 411.5,49.5C 411.657,50.8734 411.49,52.2068 411,53.5C 354.643,145.566 297.809,237.233 240.5,328.5 Z"/></g>
<g><path style="opacity:0.968" fill="#b0afaf" d="M 292.5,66.5 C 287.166,80.1712 280.999,93.5046 274,106.5C 272.687,110.42 271.687,114.42 271,118.5C 260.972,188.531 250.805,258.531 240.5,328.5C 240.631,329.376 240.298,330.043 239.5,330.5C 234.833,332.5 230.167,334.5 225.5,336.5C 225.167,335 224.833,333.5 224.5,332C 235.041,257.506 245.541,183.006 256,108.5C 260.527,97.1125 265.86,86.1125 272,75.5C 273.543,73.6217 275.376,72.1217 277.5,71C 282.446,69.1835 287.446,67.6835 292.5,66.5 Z"/></g>
</svg>
