<?xml version="1.0" encoding="UTF-8"?>
<svg version="1.1" xmlns="http://www.w3.org/2000/svg" width="1317" height="1125">
    <path d="M0 0 C1.65674261 0.52743477 3.31365163 1.05434703 4.97070312 1.58081055 C6.27841675 1.99887466 6.27841675 1.99887466 7.61254883 2.42538452 C84.40256596 26.88821954 164.42452732 44.77162963 244.7109375 52.48046875 C245.85680328 52.59165039 245.85680328 52.59165039 247.02581787 52.70507812 C286.66172494 56.50768763 327.05214232 57.55896934 366.7109375 53.48046875 C374.16179529 67.45095969 381.32635261 81.5552282 388.39672852 95.72167969 C390.1397603 99.21308775 391.88704602 102.70234289 393.63476562 106.19140625 C399.49906894 117.91804731 405.25739441 129.68346331 410.86428833 141.53527832 C413.51506271 147.0983099 416.30859935 152.54303492 419.29296875 157.93359375 C420.35589898 159.8941869 421.41563407 161.85647255 422.47436523 163.81933594 C423.16681223 165.08079163 423.87494338 166.33377951 424.59936523 167.57714844 C430.40260062 177.60963777 432.74491305 187.78420305 434.55371094 199.13525391 C434.80870696 200.68343036 435.06465173 202.23145079 435.32147312 203.77932549 C435.99600181 207.86164463 436.65715931 211.94601604 437.31514001 216.03103065 C437.95106504 219.96652555 438.59875938 223.90007766 439.24516296 227.8338623 C440.74664727 236.99029305 442.2258761 246.15026862 443.70258522 255.31072235 C444.47216559 260.08210934 445.24378149 264.85316725 446.01513672 269.62426758 C447.35593021 277.91912324 448.69556243 286.21416573 450.03439331 294.50933838 C452.19895816 307.92041412 454.36603768 321.33108297 456.53344727 334.74169922 C457.28973181 339.42129304 458.04600005 344.10088949 458.80226135 348.78048706 C458.99182205 349.95344255 459.18138275 351.12639804 459.37668771 352.33489764 C460.74410033 360.79631208 462.11118543 369.2577794 463.47813416 377.7192688 C470.93123513 423.85367498 478.39528239 469.98630716 485.86194801 516.11851966 C488.71840101 533.76694433 491.57357104 551.41557608 494.4277916 569.06436193 C496.26145444 580.40233188 498.09549273 591.74024109 499.9296875 603.078125 C500.13083664 604.32153066 500.33198578 605.56493632 500.53923035 606.84602094 C506.30455933 642.48315434 512.08727424 678.11742596 517.88520902 713.74926877 C519.31306631 722.52486314 520.73981962 731.30063639 522.16578674 740.07653809 C522.36326753 741.29188476 522.56074833 742.50723144 522.76421338 743.75940681 C523.55187924 748.60708051 524.33950343 753.45476098 525.12697709 758.30246592 C527.40295343 772.31335115 529.68263696 786.32361958 531.9690429 800.33280677 C533.37723274 808.96293029 534.7809723 817.59376996 536.18115795 826.22519571 C536.98448339 831.17624634 537.78992463 836.12692897 538.60098267 841.07671928 C539.34122437 845.59443062 540.07567501 850.11304359 540.80550683 854.63244796 C541.06991088 856.26315655 541.33646001 857.89351911 541.60537899 859.52348924 C541.97031679 861.73733513 542.32740368 863.95231357 542.68260193 866.16773987 C542.8826757 867.39596246 543.08274946 868.62418505 543.28888607 869.8896265 C543.7553486 873.85832144 543.91238355 877.48778983 543.7109375 881.48046875 C541.76171875 883.80859375 541.76171875 883.80859375 539.0234375 885.73046875 C537.51716797 886.85195312 537.51716797 886.85195312 535.98046875 887.99609375 C535.44502441 888.39248047 534.90958008 888.78886719 534.35791016 889.19726562 C531.47583869 891.44276928 528.86112819 893.96976178 526.2109375 896.48046875 C510.17777423 911.48046875 510.17777423 911.48046875 506.7109375 911.48046875 C505.25317383 909.47460937 505.25317383 909.47460937 503.54296875 906.63671875 C502.90480225 905.58726074 502.26663574 904.53780273 501.60913086 903.45654297 C501.26977509 902.89094666 500.93041931 902.32535034 500.58078003 901.74261475 C499.14865779 899.35586835 497.70090494 896.9787413 496.25422668 894.60079956 C495.50694446 893.37192727 494.76052574 892.1425295 494.01493835 890.91262817 C490.4457065 885.02699686 486.80564832 879.18680423 483.1484375 873.35546875 C481.90755101 871.37369859 480.66666559 869.39192776 479.42578125 867.41015625 C478.81331543 866.43272461 478.20084961 865.45529297 477.56982422 864.44824219 C474.44629346 859.46142318 471.32894575 854.47074181 468.2109375 849.48046875 C466.96096676 847.48045047 465.71096676 845.48045046 464.4609375 843.48046875 C402.5859375 744.48046875 340.7109375 645.48046875 261.9609375 519.48046875 C261.34226807 518.49062988 260.72359863 517.50079102 260.08618164 516.48095703 C258.83525081 514.47940256 257.58443715 512.47777486 256.33374023 510.47607422 C253.22393481 505.49925279 250.11215419 500.52368907 246.99609375 495.55078125 C240.46108685 485.11655643 233.96498122 474.66019057 227.5234375 464.16796875 C222.47195154 455.94102128 217.38145317 447.74229367 212.21142578 439.58935547 C208.24855502 433.33954753 204.31832302 427.06982076 200.3984375 420.79296875 C199.76800537 419.78347168 199.13757324 418.77397461 198.48803711 417.73388672 C197.203336 415.67634103 195.91875005 413.61872343 194.63427734 411.56103516 C191.49504527 406.53300388 188.35286599 401.50681534 185.2109375 396.48046875 C183.96092286 394.4804779 182.71092288 392.48047789 181.4609375 390.48046875 C180.5328125 388.99546875 180.5328125 388.99546875 179.5859375 387.48046875 C122.7109375 296.48046875 65.8359375 205.48046875 8.9609375 114.48046875 C8.34226807 113.49062988 7.72359863 112.50079102 7.08618164 111.48095703 C5.83525081 109.47940256 4.58443715 107.47777486 3.33374023 105.47607422 C0.22393481 100.49925279 -2.88784581 95.52368907 -6.00390625 90.55078125 C-13.22022976 79.0287212 -20.37881353 67.47328316 -27.49072266 55.88647461 C-32.12906236 48.33929708 -36.82206312 40.82908566 -41.57299805 33.35229492 C-42.4419331 31.98473179 -43.30802968 30.6153582 -44.17041016 29.24365234 C-45.14975235 27.7000449 -46.16029612 26.17632402 -47.17578125 24.65625 C-47.54316406 23.93824219 -47.91054688 23.22023437 -48.2890625 22.48046875 C-46.98787822 18.57691591 -44.61375616 17.32383181 -41.3515625 15.10546875 C-40.07960902 14.22818436 -38.80883564 13.34918724 -37.5390625 12.46875 C-36.85585938 11.99518066 -36.17265625 11.52161133 -35.46875 11.03369141 C-33.13770971 9.37261632 -30.86902568 7.64518596 -28.6015625 5.8984375 C-27.81257568 5.30015137 -27.02358887 4.70186523 -26.21069336 4.08544922 C-24.66099766 2.90798199 -23.12225422 1.71593189 -21.59594727 0.50830078 C-20.87721436 -0.03068848 -20.15848145 -0.56967773 -19.41796875 -1.125 C-18.78963135 -1.61121826 -18.16129395 -2.09743652 -17.51391602 -2.59838867 C-12.042986 -4.86348457 -5.38395402 -1.75501403 0 0 Z " fill="#29235C" transform="translate(55.2890625,188.51953125)"/>
    <path d="M0 0 C-36 58.5 -36 58.5 -38.00048828 61.75073242 C-39.33226668 63.91491297 -40.66397254 66.07913815 -41.99560547 68.2434082 C-45.35213255 73.69848297 -48.70996186 79.15274836 -52.0703125 84.60546875 C-58.46938506 94.99175629 -64.85368857 105.38626217 -71.1875 115.8125 C-76.07752591 123.86141126 -81.00759252 131.88408677 -85.97216797 139.88720703 C-90.26713348 146.81153262 -94.54349509 153.74714074 -98.8125 160.6875 C-99.48394043 161.77909424 -100.15538086 162.87068848 -100.84716797 163.99536133 C-102.21540332 166.22000824 -103.58356704 168.44469921 -104.95166016 170.66943359 C-108.29993688 176.11367568 -111.65004759 181.5567889 -115 187 C-116.33334242 189.16666108 -117.66667574 191.33332775 -119 193.5 C-191 310.5 -191 310.5 -193.00048828 313.75073242 C-194.33226668 315.91491297 -195.66397254 318.07913815 -196.99560547 320.2434082 C-200.35213255 325.69848297 -203.70996186 331.15274836 -207.0703125 336.60546875 C-213.46938506 346.99175629 -219.85368857 357.38626217 -226.1875 367.8125 C-231.07752591 375.86141126 -236.00759252 383.88408677 -240.97216797 391.88720703 C-245.26713348 398.81153262 -249.54349509 405.74714074 -253.8125 412.6875 C-254.48394043 413.77909424 -255.15538086 414.87068848 -255.84716797 415.99536133 C-257.21540332 418.22000824 -258.58356704 420.44469921 -259.95166016 422.66943359 C-263.29993688 428.11367568 -266.65004759 433.5567889 -270 439 C-271.33334242 441.16666108 -272.66667574 443.33332775 -274 445.5 C-330 536.5 -330 536.5 -332.00048828 539.75073242 C-333.33226668 541.91491297 -334.66397254 544.07913815 -335.99560547 546.2434082 C-339.35213255 551.69848297 -342.70996186 557.15274836 -346.0703125 562.60546875 C-352.46938506 572.99175629 -358.85368857 583.38626217 -365.1875 593.8125 C-370.07752591 601.86141126 -375.00759252 609.88408677 -379.97216797 617.88720703 C-384.26713348 624.81153262 -388.54349509 631.74714074 -392.8125 638.6875 C-393.81966064 640.32489136 -393.81966064 640.32489136 -394.84716797 641.99536133 C-396.21540332 644.22000824 -397.58356704 646.44469921 -398.95166016 648.66943359 C-402.29993688 654.11367568 -405.65004759 659.5567889 -409 665 C-410.33334242 667.16666108 -411.66667574 669.33332775 -413 671.5 C-485 788.5 -485 788.5 -487.00048828 791.75073242 C-488.33226668 793.91491297 -489.66397254 796.07913815 -490.99560547 798.2434082 C-494.35213255 803.69848297 -497.70996186 809.15274836 -501.0703125 814.60546875 C-508.04563509 825.92706348 -514.99515852 837.26332865 -521.89819336 848.62915039 C-526.50083 856.199477 -531.152895 863.73844992 -535.8269043 871.26489258 C-536.33133057 872.07724365 -536.83575684 872.88959473 -537.35546875 873.7265625 C-537.79528076 874.43377441 -538.23509277 875.14098633 -538.68823242 875.86962891 C-540.06852199 878.0079274 -540.06852199 878.0079274 -541.11987305 880.49707031 C-543.92920335 884.23700724 -547.5002997 885.49752897 -551.7265625 887.3203125 C-553.01994034 887.89832108 -553.01994034 887.89832108 -554.33944702 888.48800659 C-556.16374814 889.30004495 -557.99129298 890.10482962 -559.82177734 890.90283203 C-562.60031965 892.1142397 -565.36910094 893.34589766 -568.13671875 894.58203125 C-569.91613153 895.37099971 -571.69606383 896.15879768 -573.4765625 896.9453125 C-574.29565094 897.3078714 -575.11473938 897.6704303 -575.95864868 898.04397583 C-576.74911591 898.38798431 -577.53958313 898.7319928 -578.35400391 899.08642578 C-579.03556549 899.38445099 -579.71712708 899.6824762 -580.41934204 899.98953247 C-582.81536849 900.92770675 -585.21912396 901.75438422 -587.66129112 902.56315422 C-588.47331722 902.83247383 -589.28534331 903.10179344 -590.12197626 903.37927425 C-590.74172409 903.58411375 -591.36147193 903.78895324 -592 904 C-589.88855928 886.57689816 -587.52573986 869.1968119 -585.05566406 851.82128906 C-584.66411335 849.05801874 -584.27316 846.29466397 -583.88217926 843.53131294 C-583.03973024 837.57929301 -582.19587046 831.6274745 -581.35103607 825.67579269 C-580.10094081 816.86903415 -578.85317957 808.061946 -577.60590985 799.25478689 C-575.51859586 784.51631073 -573.42958593 769.77807546 -571.33959961 755.03997803 C-568.36136529 734.03796418 -565.38564205 713.03559504 -562.41063333 692.03312406 C-562.01705284 689.25459245 -561.623467 686.47606159 -561.22987938 683.69753098 C-561.09968035 682.77839099 -560.96948132 681.85925099 -560.83533686 680.91225826 C-560.70499232 679.99209104 -560.57464777 679.07192383 -560.44035339 678.12387276 C-559.64781119 672.52891601 -558.8552729 666.93395871 -558.06274891 661.33899939 C-556.4622089 650.03978767 -554.86144692 638.74060741 -553.26052189 627.44145024 C-546.08658872 576.80858729 -538.9206475 526.17460127 -531.765625 475.5390625 C-531.59990791 474.3663019 -531.59990791 474.3663019 -531.430843 473.16984916 C-528.42609773 451.90550253 -525.42210233 430.64104999 -522.4183885 409.37655765 C-521.11610412 400.15720044 -519.81372064 390.93785723 -518.51129365 381.71852016 C-517.64293046 375.57171267 -516.77459325 369.42490151 -515.906442 363.27806407 C-513.9870464 349.68802868 -512.06660055 336.09814325 -510.14324951 322.50866699 C-509.44820831 317.59662036 -508.75333652 312.68454979 -508.05859375 307.77246094 C-507.88939753 306.57627262 -507.72020131 305.3800843 -507.54587793 304.14764786 C-505.31870292 288.39655761 -503.11002347 272.64298803 -500.91843414 256.88690758 C-499.77644341 248.67686208 -498.62923316 240.46754844 -497.48077536 232.25840533 C-496.57167418 225.75626827 -495.66991297 219.25317157 -494.77402306 212.74920177 C-494.22950587 208.80894309 -493.67798266 204.86968891 -493.12447166 200.93068457 C-492.87246791 199.12675099 -492.62339913 197.32240445 -492.37757301 195.51761866 C-490.82401245 184.12397219 -488.92240059 174.1512166 -483.40234375 163.87890625 C-483.05613983 163.2296669 -482.70993591 162.58042755 -482.35324097 161.91151428 C-481.22106236 159.7916775 -480.07929941 157.67716775 -478.9375 155.5625 C-478.13232416 154.05882298 -477.32789481 152.55474603 -476.52416992 151.05029297 C-474.85389799 147.92507236 -473.1804353 144.8015916 -471.50488281 141.67919922 C-467.95199731 135.05123243 -464.445221 128.39897977 -460.93466187 121.74853516 C-458.71521403 117.54853901 -456.48639094 113.35350883 -454.25941467 109.15750122 C-452.07451258 105.03728478 -449.90254921 100.9105529 -447.74046326 96.77832031 C-446.36610496 94.15499483 -444.9843926 91.53558925 -443.60116577 88.91693115 C-442.95783316 87.69478624 -442.3177954 86.47090042 -441.68130493 85.24517822 C-440.80918017 83.56649628 -439.92441824 81.89439782 -439.0390625 80.22265625 C-438.54615723 79.28172119 -438.05325195 78.34078613 -437.54541016 77.37133789 C-434.03743716 71.98856669 -428.66663084 70.53521278 -422.87890625 68.3828125 C-421.98316391 68.04377899 -421.08742157 67.70474548 -420.16453552 67.35543823 C-417.29944548 66.27253208 -414.4310946 65.19858376 -411.5625 64.125 C-408.73454728 63.0593526 -405.90727406 61.99192846 -403.08036804 60.92350769 C-401.24271467 60.23158893 -399.40336741 59.54415179 -397.56233215 58.86128235 C-393.74363615 57.44150936 -389.95355471 56.01643709 -386.23901367 54.34057617 C-378.04348186 50.74343106 -371.97081067 50.78362575 -363.1875 52.0625 C-360.4422032 52.4014481 -357.69387748 52.71224925 -354.9453125 53.0234375 C-354.22696732 53.10730209 -353.50862213 53.19116669 -352.76850891 53.27757263 C-272.31103651 62.44940438 -187.52487356 54.73702392 -109 36 C-108.33887207 35.84229126 -107.67774414 35.68458252 -106.99658203 35.52209473 C-72.31114914 27.19087527 -37.76198156 15.7811843 -5.71264648 0.03466797 C-3 -1 -3 -1 0 0 Z " fill="#29235C" transform="translate(1310,186)"/>
    <path d="M0 0 C1.71273049 0.30153085 3.420702 0.63053516 5.125 0.9765625 C7.43598909 1.36322935 9.74720474 1.74854349 12.05859375 2.1328125 C14.56044621 2.57764476 17.0617404 3.02562697 19.5625 3.4765625 C20.84060547 3.70214844 22.11871094 3.92773438 23.43554688 4.16015625 C24.65177734 4.37800781 25.86800781 4.59585938 27.12109375 4.8203125 C28.22638428 5.01818359 29.3316748 5.21605469 30.47045898 5.41992188 C33.125 5.9765625 33.125 5.9765625 35.125 6.9765625 C34.50561152 10.24768535 33.75244592 13.42186853 32.8203125 16.6171875 C15.33830926 78.40106368 28.67805422 142.96857177 59.125 198.4140625 C63.31735977 205.86127135 67.88373146 213.07038452 72.58203125 220.20703125 C72.99533691 220.83786621 73.40864258 221.46870117 73.83447266 222.11865234 C75.11087489 224.00978015 75.11087489 224.00978015 76.63037109 225.80712891 C78.07421875 227.58984375 78.07421875 227.58984375 80.125 230.9765625 C79.10791443 235.3365115 77.18259204 238.84599361 74.84375 242.6328125 C73.84214844 244.26669922 73.84214844 244.26669922 72.8203125 245.93359375 C72.46356445 246.50932129 72.10681641 247.08504883 71.73925781 247.67822266 C70.20460417 250.1550541 68.68333696 252.64001642 67.16113281 255.12451172 C66.3603729 256.43123909 65.55893067 257.73754857 64.75683594 259.04345703 C60.87349283 265.36984959 57.05413882 271.73376417 53.24441528 278.10467529 C47.10016396 288.37909769 40.91537862 298.62764075 34.6875 308.8515625 C27.57407853 320.53072626 20.57651092 332.27632645 13.63110352 344.05615234 C13.24939499 344.70199783 12.86768646 345.34784332 12.47441101 346.01325989 C10.40183095 349.51943755 10.40183095 349.51943755 8.34937668 353.03741074 C7.125 354.9765625 7.125 354.9765625 5.50209427 357.01974869 C-1.23307258 366.04404426 -2.06514271 375.85808764 -3.57080078 386.69799805 C-3.88470808 388.81512839 -4.20094416 390.93191452 -4.5192976 393.04838085 C-5.38407344 398.84234575 -6.21619825 404.64059624 -7.04307008 410.44007444 C-7.94020898 416.69028605 -8.86813545 422.93593106 -9.79252625 429.18215942 C-11.38849025 439.99403067 -12.96591315 450.80844664 -14.53042603 461.62490845 C-16.90889624 478.06701377 -19.32106122 494.50406879 -21.74022509 510.9402297 C-22.71079031 517.53532054 -23.68032915 524.13056237 -24.64979553 530.72581482 C-24.81106591 531.82283083 -24.81106591 531.82283083 -24.97559427 532.94200877 C-26.62864933 544.18770156 -28.27582556 555.43424598 -29.91966248 566.68128967 C-35.78345417 606.79679003 -41.70947793 646.90254191 -47.70106173 686.99915585 C-48.01177115 689.07847564 -48.32244569 691.15780064 -48.63311386 693.23712659 C-50.66854447 706.85999491 -52.70542726 720.48264579 -54.74346185 734.10512477 C-56.47972308 745.71056335 -58.21482631 757.31617352 -59.94708252 768.92221069 C-60.13033734 770.14998924 -60.31359216 771.37776779 -60.50240016 772.64275175 C-61.41546679 778.76115212 -62.32792762 784.87964218 -63.2395134 790.99826336 C-64.833013 801.69162639 -66.42879537 812.38460061 -68.04182839 823.07503718 C-68.91882815 828.88776164 -69.79333208 834.70085952 -70.66650391 840.51416016 C-70.83900177 841.66229962 -71.01149964 842.81043908 -71.18922472 843.99337065 C-73.72116456 860.88130916 -76.11464692 877.78608731 -78.43776507 894.70378858 C-79.61451756 903.26105346 -80.82404216 911.81371362 -82.03547853 920.36613077 C-83.09166337 927.84365958 -84.10613877 935.32522751 -85.0879817 942.81285906 C-85.70539762 947.44143011 -86.36365574 952.06355229 -87.0325892 956.68493104 C-87.33067603 958.80185063 -87.61242526 960.92115725 -87.87511039 963.04276061 C-89.79763218 978.47287343 -94.76051529 989.66021729 -103.33238661 1002.60767424 C-105.61510659 1006.11309472 -107.68848191 1009.72934921 -109.7578125 1013.36328125 C-110.47545224 1014.60025417 -111.1940434 1015.83667618 -111.9140625 1017.07226562 C-112.9782184 1018.90306341 -114.04079081 1020.73471283 -115.09960938 1022.56860352 C-116.1689301 1024.41933273 -117.24405744 1026.2665783 -118.3203125 1028.11328125 C-119.24094482 1029.70209106 -119.24094482 1029.70209106 -120.18017578 1031.32299805 C-121.60481076 1033.55353069 -122.9085966 1035.23219662 -124.875 1036.9765625 C-126.25341159 1031.69689027 -127.38307844 1026.45030585 -128.23323059 1021.05831909 C-128.35579041 1020.29936515 -128.47835022 1019.54041122 -128.60462397 1018.75845867 C-129.0129158 1016.2247455 -129.41623793 1013.69026717 -129.81958008 1011.15576172 C-130.11504085 1009.31571999 -130.41081108 1007.47572793 -130.7068634 1005.63578129 C-131.51849071 1000.58599065 -132.32578865 995.53551601 -133.13240647 990.48492312 C-134.0029837 985.03889707 -134.87766016 979.59352934 -135.75187683 974.14808655 C-137.26849524 964.6977782 -138.78265513 955.24707864 -140.29516602 945.79611206 C-142.71217442 930.69367516 -145.13401318 915.59201493 -147.55664062 900.49047852 C-148.38811521 895.30714788 -149.21956069 890.12381258 -150.05099487 884.94047546 C-150.25859401 883.64628215 -150.46619314 882.35208883 -150.68008316 881.01867753 C-152.06507839 872.38411931 -153.44952481 863.74947325 -154.83363752 855.11477352 C-160.51744159 819.65696354 -166.2128412 784.20103546 -171.9204464 748.74704742 C-172.51166638 745.07454406 -173.10284633 741.40203425 -173.6940155 737.72952271 C-176.80704449 718.39066993 -179.92053158 699.05189091 -183.03449249 679.71318817 C-185.70757519 663.11233623 -188.37989897 646.51136236 -191.05078125 629.91015625 C-191.32911395 628.18018276 -191.32911395 628.18018276 -191.61306953 626.41526031 C-196.87623922 593.69995845 -202.1157191 560.98094777 -207.33016586 528.25784492 C-208.34004084 521.92050607 -209.35064318 515.58328335 -210.36135864 509.24607849 C-211.01242372 505.16348802 -211.66344681 501.08089086 -212.31445312 496.99829102 C-212.55185451 495.5095661 -212.55185451 495.5095661 -212.79405189 493.99076593 C-214.64086673 482.40859566 -216.48416566 470.82587743 -218.32166404 459.24222535 C-219.44101482 452.18704185 -220.56374917 445.13240244 -221.68919832 438.07818919 C-222.45253173 433.29246281 -223.21168476 428.50610086 -223.96740282 423.71916634 C-224.42343823 420.8373963 -224.88368322 417.95631101 -225.3452034 415.07541478 C-225.65374681 413.14151346 -225.95723949 411.20680842 -226.26054382 409.27207851 C-226.44532288 408.12433484 -226.63010193 406.97659117 -226.82048035 405.79406738 C-226.9770621 404.80781624 -227.13364386 403.82156509 -227.29497051 402.80542755 C-228.21943234 398.29672961 -229.65682626 394.11186972 -231.80078125 390.04296875 C-232.17847656 389.32367188 -232.55617188 388.604375 -232.9453125 387.86328125 C-233.35523438 387.09628906 -233.76515625 386.32929688 -234.1875 385.5390625 C-234.62191406 384.71921875 -235.05632812 383.899375 -235.50390625 383.0546875 C-239.5527158 375.46885612 -243.79810573 367.99744934 -248.0559082 360.52758789 C-251.44368566 354.56627343 -254.71779904 348.56286538 -257.875 342.4765625 C-261.43519231 335.61666215 -265.16661745 328.87494855 -269 322.1640625 C-274.18410689 313.08081156 -279.16271926 303.90246184 -284.0625 294.6640625 C-288.70105389 285.91891332 -293.36790673 277.19662835 -298.20629883 268.55981445 C-301.77323531 262.18539262 -305.26783289 255.77264179 -308.75 249.3515625 C-309.29809326 248.34303223 -309.84618652 247.33450195 -310.41088867 246.29541016 C-313.33176362 240.90101366 -316.16824065 235.48161413 -318.875 229.9765625 C-318.25753906 229.31011719 -317.64007813 228.64367187 -317.00390625 227.95703125 C-311.86972123 222.36960006 -306.95744785 216.69343383 -302.21875 210.76171875 C-299.76086196 207.84092846 -297.12288625 205.18835002 -294.4375 202.4765625 C-269.88603113 176.53522647 -260.33664743 129.35152654 -256.875 94.9765625 C-256.76414062 93.91695313 -256.65328125 92.85734375 -256.5390625 91.765625 C-254.28175332 66.08110701 -256.35421235 40.52929938 -261.42602539 15.31225586 C-261.95866373 12.54132001 -262.41971449 9.76114583 -262.875 6.9765625 C-223.19174005 3.85672551 -223.19174005 3.85672551 -215.3203125 10.52734375 C-212.1861835 14.20492604 -209.98577003 18.2910044 -207.984375 22.67333984 C-206.3642518 26.0369495 -204.24560241 28.59109487 -201.875 31.4765625 C-200.69164062 33.01763672 -200.69164062 33.01763672 -199.484375 34.58984375 C-196.37938776 38.62608497 -193.25223458 42.64504894 -190.125 46.6640625 C-189.53855713 47.41792236 -188.95211426 48.17178223 -188.34790039 48.94848633 C-185.24990739 52.92945574 -182.14838306 56.90762939 -179.04296875 60.8828125 C-178.10565918 62.08417847 -178.10565918 62.08417847 -177.14941406 63.30981445 C-175.96115785 64.83272177 -174.77177947 66.35475445 -173.58105469 67.87573242 C-173.03739258 68.57287354 -172.49373047 69.27001465 -171.93359375 69.98828125 C-171.46236084 70.59115967 -170.99112793 71.19403809 -170.50561523 71.81518555 C-168.875 73.9765625 -168.875 73.9765625 -167.82504272 75.6803894 C-164.84587979 80.34001184 -162.01801244 82.34026061 -156.671875 83.8984375 C-155.96867126 84.12544342 -155.26546753 84.35244934 -154.54095459 84.58633423 C-152.24224669 85.32287899 -149.93456796 86.02489523 -147.625 86.7265625 C-146.02204292 87.23153249 -144.41983613 87.73888987 -142.81835938 88.24853516 C-140.34243485 89.03558095 -137.86594492 89.82021373 -135.38623047 90.59524536 C-129.65447865 92.38920183 -123.9688087 94.29123548 -118.296875 96.265625 C-116.780332 96.78955758 -115.26373156 97.3133239 -113.74707031 97.83691406 C-111.57117391 98.58854795 -109.39696588 99.3437845 -107.22692871 100.11218262 C-105.22866812 100.81777355 -103.22483926 101.50454664 -101.21875 102.1875 C-100.08630859 102.58243652 -98.95386719 102.97737305 -97.78710938 103.38427734 C-94.96003417 104.21101259 -94.96003417 104.21101259 -92.63793945 103.23339844 C-90.0042765 101.35580574 -87.83055968 99.15491023 -85.5625 96.8515625 C-85.07322021 96.3558374 -84.58394043 95.8601123 -84.07983398 95.34936523 C-80.85245148 92.0537573 -77.80639385 88.64545118 -74.81640625 85.13671875 C-71.77865067 81.75668085 -68.52096305 78.60226131 -65.28857422 75.40966797 C-61.88566979 72.03248628 -58.66657384 68.56114541 -55.56958008 64.8984375 C-53.96134924 63.07449381 -52.28419855 61.3986102 -50.53125 59.71484375 C-47.01408483 56.22080262 -44.08687398 52.48757987 -41.1875 48.4765625 C-37.14849165 42.98901597 -33.0304911 37.59059452 -28.75 32.2890625 C-25.015823 27.65701425 -21.31666896 23.0039348 -17.6875 18.2890625 C-16.88054687 17.25136719 -16.07359375 16.21367188 -15.2421875 15.14453125 C-13.59384062 12.93857527 -12.06268996 10.76829592 -10.5703125 8.46484375 C-10.19028076 7.90047607 -9.81024902 7.3361084 -9.41870117 6.75463867 C-8.37906152 5.20103017 -7.37379953 3.62457303 -6.37109375 2.046875 C-3.875 -0.0234375 -3.875 -0.0234375 0 0 Z " fill="#29235C" transform="translate(772.875,28.0234375)"/>
    <path d="M0 0 C13.53 0 27.06 0 41 0 C46.82546083 17.47638249 46.82546083 17.47638249 48.625 25.625 C48.81578125 26.43066406 49.0065625 27.23632812 49.203125 28.06640625 C52.98440902 44.83009876 54.50018286 61.46081301 54.39111328 78.62109375 C54.37496961 81.63066627 54.39110857 84.638904 54.41015625 87.6484375 C54.42896145 103.95404099 52.68962971 119.55794573 48.125 135.25 C47.86235352 136.17417725 47.59970703 137.09835449 47.32910156 138.05053711 C46.56674223 140.70470266 45.78567543 143.35266089 45 146 C44.80180664 146.6904541 44.60361328 147.3809082 44.39941406 148.09228516 C37.82620321 170.84075017 25.74880915 193.30406535 10 211 C9.22914063 211.87914062 8.45828125 212.75828125 7.6640625 213.6640625 C5.78941692 215.78866083 3.90257309 217.90043024 2 220 C3.72432354 224.66581663 5.99222075 228.9863289 8.3125 233.375 C8.75126465 234.20733154 9.1900293 235.03966309 9.64208984 235.8972168 C13.5404142 243.23799662 17.63914553 250.45733348 21.7590332 257.67529297 C26.32065935 265.70750626 30.67874737 273.83713344 35 282 C40.20310884 291.82746015 45.52945712 301.56184766 51.05322266 311.21411133 C56.3522914 320.520652 61.36634379 329.97500967 66.35742188 339.44921875 C66.99605294 340.65757366 67.63472419 341.86590732 68.2734375 343.07421875 C68.58278229 343.66366776 68.89212708 344.25311676 69.21084595 344.86042786 C71.25806267 348.7248743 73.50375935 352.41505094 75.828125 356.1171875 C79.34596876 362.12407165 80.50475659 367.58722115 81.375 374.4375 C81.56388082 375.75882701 81.75543347 377.07977399 81.94921875 378.40039062 C82.39699838 381.47989207 82.82926466 384.56113353 83.25292969 387.64404297 C84.07840416 393.61383744 84.96384286 399.57434716 85.8515625 405.53515625 C87.26306958 415.02610429 88.66506652 424.5183872 90.057724 434.01211548 C92.91132137 453.45923872 95.81096478 472.89942485 98.71773911 492.33866119 C99.12661631 495.07331021 99.5353298 497.80798365 99.94400024 500.54266357 C103.06359474 521.41664237 106.19208716 542.28926776 109.33216476 563.16017532 C110.78468422 572.81500546 112.23623957 582.46998054 113.6875 592.125 C113.8468956 593.18527405 114.0062912 594.2455481 114.17051697 595.33795166 C118.4193767 623.60413506 122.60840703 651.87762683 126.67817688 680.17014694 C129.68298166 701.05822117 132.78622251 721.92903243 135.99053955 742.7875061 C139.13635256 763.26643393 142.21101508 783.75500282 145.25 804.25 C145.4780475 805.78750764 145.70610538 807.32501374 145.93417358 808.86251831 C146.10439167 810.01004153 146.10439167 810.01004153 146.27804852 811.18074703 C146.44918525 812.33445718 146.44918525 812.33445718 146.6237793 813.51147461 C146.8567862 815.08231098 147.08979299 816.65314736 147.32279968 818.22398376 C147.43931067 819.00943007 147.55582165 819.79487637 147.67586327 820.60412407 C147.91346111 822.20591417 148.15104163 823.80770684 148.38860512 825.40950203 C149.80429791 834.95443075 151.22233446 844.4990068 152.64453125 854.04296875 C152.85316394 855.44306954 152.85316394 855.44306954 153.06601143 856.87145519 C153.77577122 861.63278562 154.48662612 866.39394957 155.19918823 871.15486145 C156.47179488 879.66057911 157.74092699 888.16665896 158.98274803 896.67693424 C159.6437615 901.20572575 160.30889237 905.73390409 160.9765625 910.26171875 C161.16906271 911.56777352 161.16906271 911.56777352 161.36545181 912.90021324 C162.95610723 923.63973798 164.73326704 934.30430102 166.8359375 944.95703125 C173.06765382 977.01182144 173.06765382 977.01182144 166 988.0625 C164.14086776 990.52940607 162.19391271 992.87904198 160.18066406 995.22167969 C156.17776646 1000.32165446 153.17283078 1006.0504713 150.00146484 1011.69064331 C148.21540705 1014.8567443 146.39099571 1017.99956708 144.5546875 1021.13671875 C143.94093262 1022.19592529 143.32717773 1023.25513184 142.69482422 1024.34643555 C141.27018924 1026.57696819 139.9664034 1028.25563412 138 1030 C136.62158841 1024.72032777 135.49192156 1019.47374335 134.64176941 1014.08175659 C134.51920959 1013.32280265 134.39664978 1012.56384872 134.27037603 1011.78189617 C133.8620842 1009.248183 133.45876207 1006.71370467 133.05541992 1004.17919922 C132.75995915 1002.33915749 132.46418892 1000.49916543 132.1681366 998.65921879 C131.35650929 993.60942815 130.54921135 988.55895351 129.74259353 983.50836062 C128.8720163 978.06233457 127.99733984 972.61696684 127.12312317 967.17152405 C125.60650476 957.7212157 124.09234487 948.27051614 122.57983398 938.81954956 C120.16282558 923.71711266 117.74098682 908.61545243 115.31835938 893.51391602 C114.48688479 888.33058538 113.65543931 883.14725008 112.82400513 877.96391296 C112.61640599 876.66971965 112.40880686 875.37552633 112.19491684 874.04211503 C110.80992161 865.40755681 109.42547519 856.77291075 108.04136248 848.13821102 C102.35755841 812.68040104 96.6621588 777.22447296 90.9545536 741.77048492 C90.36333362 738.09798156 89.77215367 734.42547175 89.1809845 730.75296021 C86.06795551 711.41410743 82.95446842 692.07532841 79.84050751 672.73662567 C77.16742481 656.13577373 74.49510103 639.53479986 71.82421875 622.93359375 C71.54588605 621.20362026 71.54588605 621.20362026 71.26193047 619.43869781 C65.99876078 586.72339595 60.7592809 554.00438527 55.54483414 521.28128242 C54.53495916 514.94394357 53.52435682 508.60672085 52.51364136 502.26951599 C51.86257628 498.18692552 51.21155319 494.10432836 50.56054688 490.02172852 C50.32314549 488.5330036 50.32314549 488.5330036 50.08094811 487.01420343 C48.23413327 475.43203316 46.39083434 463.84931493 44.55333596 452.26566285 C43.43398518 445.21047935 42.31125083 438.15583994 41.18580168 431.10162669 C40.42246827 426.31590031 39.66331524 421.52953836 38.90759718 416.74260384 C38.45156177 413.8608338 37.99131678 410.97974851 37.5297966 408.09885228 C37.22125319 406.16495096 36.91776051 404.23024592 36.61445618 402.29551601 C36.42967712 401.14777234 36.24489807 400.00002867 36.05451965 398.81750488 C35.8979379 397.83125374 35.74135614 396.84500259 35.58002949 395.82886505 C34.65556766 391.32016711 33.21817374 387.13530722 31.07421875 383.06640625 C30.69652344 382.34710938 30.31882812 381.6278125 29.9296875 380.88671875 C29.51976562 380.11972656 29.10984375 379.35273438 28.6875 378.5625 C28.25308594 377.74265625 27.81867188 376.9228125 27.37109375 376.078125 C23.3222842 368.49229362 19.07689427 361.02088684 14.8190918 353.55102539 C11.43131434 347.58971093 8.15720096 341.58630288 5 335.5 C1.43980769 328.64009965 -2.29161745 321.89838605 -6.125 315.1875 C-11.30910689 306.10424906 -16.28771926 296.92589934 -21.1875 287.6875 C-25.82605389 278.94235082 -30.49290673 270.22006585 -35.33129883 261.58325195 C-38.89823531 255.20883012 -42.39283289 248.79607929 -45.875 242.375 C-46.42309326 241.36646973 -46.97118652 240.35793945 -47.53588867 239.31884766 C-50.45676362 233.92445116 -53.29324065 228.50505163 -56 223 C-55.38253906 222.33355469 -54.76507813 221.66710937 -54.12890625 220.98046875 C-48.99472123 215.39303756 -44.08244785 209.71687133 -39.34375 203.78515625 C-36.88586196 200.86436596 -34.24788625 198.21178752 -31.5625 195.5 C-7.01103113 169.55866397 2.53835257 122.37496404 6 88 C6.11085938 86.94039063 6.22171875 85.88078125 6.3359375 84.7890625 C8.59324668 59.10454451 6.52078765 33.55273688 1.44897461 8.33569336 C0.91660687 5.56616527 0.46364307 2.78185843 0 0 Z " fill="#B2B1B1" transform="translate(510,35)"/>
    <path d="M0 0 C1.13818359 1.44262695 1.13818359 1.44262695 2.3984375 3.48828125 C2.87152344 4.24753906 3.34460937 5.00679687 3.83203125 5.7890625 C4.34121094 6.62179688 4.85039063 7.45453125 5.375 8.3125 C6.46595791 10.06912714 7.557109 11.82563432 8.6484375 13.58203125 C9.2062793 14.48518066 9.76412109 15.38833008 10.33886719 16.31884766 C12.8652542 20.39656403 15.43304999 24.44774674 18 28.5 C19.00023312 30.08318607 20.00023228 31.66651999 21 33.25 C21.495 34.03375 21.99 34.8175 22.5 35.625 C32 50.66666667 41.5 65.70833333 51 80.75 C51.4947583 81.53334717 51.9895166 82.31669434 52.49926758 83.1237793 C53.50178243 84.71113526 54.50422354 86.29853779 55.5065918 87.88598633 C57.96751963 91.78315395 60.42961712 95.67957101 62.89453125 99.57421875 C68.41653701 108.30270013 73.90831604 117.0492527 79.375 125.8125 C85.41686985 135.49524107 91.52319989 145.13513447 97.66015625 154.7578125 C102.30851522 162.04761989 106.92000322 169.36063971 111.53222656 176.67333984 C114.01983357 180.61660245 116.51006414 184.55820768 119 188.5 C120.00001224 190.0833256 121.00001225 191.66665893 122 193.25 C122.495 194.03375 122.99 194.8175 123.5 195.625 C141 223.33333333 158.5 251.04166667 176 278.75 C176.4947583 279.53334717 176.9895166 280.31669434 177.49926758 281.1237793 C178.50178243 282.71113526 179.50422354 284.29853779 180.5065918 285.88598633 C182.96751963 289.78315395 185.42961712 293.67957101 187.89453125 297.57421875 C193.41653701 306.30270013 198.90831604 315.0492527 204.375 323.8125 C210.41686985 333.49524107 216.52319989 343.13513447 222.66015625 352.7578125 C227.30851522 360.04761989 231.92000322 367.36063971 236.53222656 374.67333984 C239.01983357 378.61660245 241.51006414 382.55820768 244 386.5 C245.00001224 388.0833256 246.00001225 389.66665893 247 391.25 C247.495 392.03375 247.99 392.8175 248.5 393.625 C266 421.33333333 283.5 449.04166667 301 476.75 C301.4947583 477.53334717 301.9895166 478.31669434 302.49926758 479.1237793 C303.50178243 480.71113526 304.50422354 482.29853779 305.5065918 483.88598633 C307.96751963 487.78315395 310.42961712 491.67957101 312.89453125 495.57421875 C318.41653701 504.30270013 323.90831604 513.0492527 329.375 521.8125 C335.41686985 531.49524107 341.52319989 541.13513447 347.66015625 550.7578125 C352.30851522 558.04761989 356.92000322 565.36063971 361.53222656 572.67333984 C364.01983357 576.61660245 366.51006414 580.55820768 369 584.5 C370.00001224 586.0833256 371.00001225 587.66665893 372 589.25 C372.495 590.03375 372.99 590.8175 373.5 591.625 C391 619.33333333 408.5 647.04166667 426 674.75 C426.4947583 675.53334717 426.9895166 676.31669434 427.49926758 677.1237793 C428.50178243 678.71113526 429.50422354 680.29853779 430.5065918 681.88598633 C432.96751963 685.78315395 435.42961712 689.67957101 437.89453125 693.57421875 C443.41653701 702.30270013 448.90831604 711.0492527 454.375 719.8125 C460.41686985 729.49524107 466.52319989 739.13513447 472.66015625 748.7578125 C477.30851522 756.04761989 481.92000322 763.36063971 486.53222656 770.67333984 C489.01983357 774.61660245 491.51006414 778.55820768 494 782.5 C495.00001224 784.0833256 496.00001225 785.66665893 497 787.25 C497.495 788.03375 497.99 788.8175 498.5 789.625 C527 834.75 527 834.75 528.50073242 837.1262207 C529.4982175 838.70553146 530.49577579 840.28479598 531.4934082 841.86401367 C534.03249671 845.88351145 536.57020834 849.90386767 539.10546875 853.92578125 C539.6169043 854.73660156 540.12833984 855.54742188 540.65527344 856.3828125 C541.66578617 857.98520618 542.67556842 859.58806078 543.68457031 861.19140625 C546.01084609 864.88125419 548.35448999 868.55642931 550.75390625 872.19921875 C551.17712158 872.84463623 551.60033691 873.49005371 552.03637695 874.1550293 C553.16967789 875.87789294 554.31109725 877.59540863 555.453125 879.3125 C557 882 557 882 557 885 C555.05078125 886.83984375 555.05078125 886.83984375 552.3125 888.9375 C547.85328055 892.45793641 543.63743423 896.10816406 539.5 900 C523.454045 915 523.454045 915 520 915 C518.54223633 912.99414062 518.54223633 912.99414062 516.83203125 910.15625 C516.19386475 909.10679199 515.55569824 908.05733398 514.89819336 906.97607422 C514.55883759 906.41047791 514.21948181 905.84488159 513.86984253 905.262146 C512.43772029 902.8753996 510.98996744 900.49827255 509.54328918 898.12033081 C508.79600696 896.89145852 508.04958824 895.66206075 507.30400085 894.43215942 C503.734769 888.54652811 500.09471082 882.70633548 496.4375 876.875 C495.19661351 874.89322984 493.95572809 872.91145901 492.71484375 870.9296875 C492.10237793 869.95225586 491.48991211 868.97482422 490.85888672 867.96777344 C487.73535596 862.98095443 484.61800825 857.99027306 481.5 853 C480.25002926 850.99998172 479.00002926 848.99998171 477.75 847 C415.875 748 354 649 275.25 523 C274.63133057 522.01016113 274.01266113 521.02032227 273.37524414 520.00048828 C272.12431331 517.99893381 270.87349965 515.99730611 269.62280273 513.99560547 C266.51299731 509.01878404 263.40121669 504.04322032 260.28515625 499.0703125 C253.75014935 488.63608768 247.25404372 478.17972182 240.8125 467.6875 C235.76101404 459.46055253 230.67051567 451.26182492 225.50048828 443.10888672 C221.53761752 436.85907878 217.60738552 430.58935201 213.6875 424.3125 C213.05706787 423.30300293 212.42663574 422.29350586 211.77709961 421.25341797 C210.4923985 419.19587228 209.20781255 417.13825468 207.92333984 415.08056641 C204.78410777 410.05253513 201.64192849 405.02634659 198.5 400 C197.24998536 398.00000915 195.99998538 396.00000914 194.75 394 C193.821875 392.515 193.821875 392.515 192.875 391 C136 300 79.125 209 22.25 118 C21.63133057 117.01016113 21.01266113 116.02032227 20.37524414 115.00048828 C19.12431331 112.99893381 17.87349965 110.99730611 16.62280273 108.99560547 C13.51299731 104.01878404 10.40121669 99.04322032 7.28515625 94.0703125 C0.06883274 82.54825245 -7.08975103 70.99281441 -14.20166016 59.40600586 C-18.83999986 51.85882833 -23.53300062 44.34861691 -28.28393555 36.87182617 C-29.1528706 35.50426304 -30.01896718 34.13488945 -30.88134766 32.76318359 C-31.86068985 31.21957615 -32.87123362 29.69585527 -33.88671875 28.17578125 C-34.25410156 27.45777344 -34.62148438 26.73976562 -35 26 C-33.69852484 22.09557452 -31.32413317 20.84494573 -28.0625 18.625 C-26.79748289 17.74578964 -25.53319819 16.86552483 -24.26953125 15.984375 C-23.58713379 15.51064453 -22.90473633 15.03691406 -22.20166016 14.54882812 C-19.82591674 12.87753557 -17.47951227 11.17027826 -15.13671875 9.453125 C-14.32517334 8.85935059 -13.51362793 8.26557617 -12.67749023 7.65380859 C-11.07200733 6.47734792 -9.46861474 5.29802878 -7.86743164 4.11572266 C-7.13258545 3.57995605 -6.39773926 3.04418945 -5.640625 2.4921875 C-4.98610352 2.01120605 -4.33158203 1.53022461 -3.65722656 1.03466797 C-2 0 -2 0 0 0 Z " fill="#B2B1B1" transform="translate(42,185)"/>
    <path d="M0 0 C-2.22237551 7.48632336 -5.43902005 14.33877283 -8.89123535 21.32150269 C-10.59927437 24.77832653 -12.28728865 28.24491487 -13.9765625 31.7109375 C-14.31997681 32.41470016 -14.66339111 33.11846283 -15.01721191 33.84355164 C-18.17873612 40.33635672 -21.22913839 46.8781231 -24.25 53.4375 C-28.75958431 63.21664725 -33.3372918 72.96059804 -37.96875 82.68261719 C-39.6206995 86.15128571 -41.26186587 89.62475374 -42.89453125 93.10253906 C-46.4719781 100.70634865 -50.07715111 108.25554025 -54.08203125 115.64453125 C-63.8273551 133.87761183 -67.00644078 151.57585903 -69.57350159 171.95355225 C-70.85984628 182.13868621 -72.3162786 192.29524459 -73.80078125 202.453125 C-73.92679152 203.31631033 -74.05280178 204.17949566 -74.18263054 205.06883812 C-74.70241749 208.62924005 -75.22241895 212.18961036 -75.74310589 215.74988079 C-77.07371918 224.85348209 -78.38315532 233.96009818 -79.69186211 243.06686974 C-82.15123103 260.17546136 -84.64414059 277.27866368 -87.1875 294.375 C-87.34404053 295.42757996 -87.50058105 296.48015991 -87.66186523 297.56463623 C-88.29008873 301.78779331 -88.91858002 306.01091034 -89.54760742 310.23394775 C-91.52411686 323.50817903 -93.4800207 336.78545176 -95.4375 350.0625 C-95.8173707 352.63842952 -96.19725352 355.21435725 -96.57714844 357.7902832 C-97.1485705 361.66492764 -97.71997747 365.5395743 -98.2913208 369.41423035 C-99.59965746 378.28668936 -100.90894534 387.1590076 -102.21875 396.03125 C-105.31979264 417.03837368 -108.41998159 438.04561741 -111.5078125 459.0546875 C-111.61290445 459.76970617 -111.71799641 460.48472485 -111.82627296 461.22141075 C-112.35850521 464.84266106 -112.89070093 468.46391674 -113.42288208 472.08517456 C-113.52841022 472.80324657 -113.63393837 473.52131859 -113.74266434 474.26115036 C-113.95597178 475.71261945 -114.16927693 477.16408887 -114.3825798 478.61555862 C-117.40133748 499.1568598 -120.4324751 519.69627689 -123.47976685 540.23336792 C-126.33616996 559.48652079 -129.17073958 578.74284485 -132 598 C-135.14593171 619.41255524 -138.30289981 640.82341234 -141.47949219 662.23144531 C-144.01096661 679.29450717 -146.52645 696.35988474 -149.03401756 713.42647266 C-149.78083563 718.50923767 -150.52818631 723.59192412 -151.27587891 728.67456055 C-151.38052523 729.38595656 -151.48517155 730.09735258 -151.59298897 730.83030605 C-152.01296258 733.68532656 -152.43293734 736.5403469 -152.85295486 739.39536095 C-154.14533788 748.18055909 -155.43492696 756.9661583 -156.72137451 765.75222778 C-157.43641872 770.63172264 -158.15394007 775.51085105 -158.87207031 780.38989258 C-159.19965609 782.61922511 -159.52620597 784.84871018 -159.8515625 787.07836914 C-160.58589582 792.10940803 -161.33604325 797.13637515 -162.12792969 802.15869141 C-162.76345899 806.23223258 -163.25922422 810.30010512 -163.69238281 814.39990234 C-165.44247415 829.31521128 -165.44247415 829.31521128 -169.30371094 833.49194336 C-172.48589394 835.1177188 -175.56031605 836.03319487 -179 837 C-181.88602102 838.20377525 -184.70546488 839.54559751 -187.5390625 840.8671875 C-189.03855687 841.53532191 -190.53988286 842.19936003 -192.04296875 842.859375 C-195.13932029 844.22078776 -198.23283644 845.58827869 -201.32421875 846.9609375 C-202.81231088 847.61761622 -204.30058525 848.27388219 -205.7890625 848.9296875 C-206.48480377 849.23897186 -207.18054504 849.54825623 -207.89736938 849.86691284 C-212.7704302 852 -212.7704302 852 -215 852 C-212.88855928 834.57689816 -210.52573986 817.1968119 -208.05566406 799.82128906 C-207.66411335 797.05801874 -207.27316 794.29466397 -206.88217926 791.53131294 C-206.03973024 785.57929301 -205.19587046 779.6274745 -204.35103607 773.67579269 C-203.10094081 764.86903415 -201.85317957 756.061946 -200.60590985 747.25478689 C-198.51859586 732.51631073 -196.42958593 717.77807546 -194.33959961 703.03997803 C-191.36136529 682.03796418 -188.38564205 661.03559504 -185.41063333 640.03312406 C-185.01705284 637.25459245 -184.623467 634.47606159 -184.22987938 631.69753098 C-184.09968035 630.77839099 -183.96948132 629.85925099 -183.83533686 628.91225826 C-183.70499232 627.99209104 -183.57464777 627.07192383 -183.44035339 626.12387276 C-182.64781119 620.52891601 -181.8552729 614.93395871 -181.06274891 609.33899939 C-179.4622089 598.03978767 -177.86144692 586.74060741 -176.26052189 575.44145024 C-169.08658872 524.80858729 -161.9206475 474.17460127 -154.765625 423.5390625 C-154.59990791 422.3663019 -154.59990791 422.3663019 -154.430843 421.16984916 C-151.42609773 399.90550253 -148.42210233 378.64104999 -145.4183885 357.37655765 C-144.11610412 348.15720044 -142.81372064 338.93785723 -141.51129365 329.71852016 C-140.64293046 323.57171267 -139.77459325 317.42490151 -138.906442 311.27806407 C-136.9870464 297.68802868 -135.06660055 284.09814325 -133.14324951 270.50866699 C-132.44820831 265.59662036 -131.75333652 260.68454979 -131.05859375 255.77246094 C-130.88939753 254.57627262 -130.72020131 253.3800843 -130.54587793 252.14764786 C-128.31870292 236.39655761 -126.11002347 220.64298803 -123.91843414 204.88690758 C-122.77644341 196.67686208 -121.62923316 188.46754844 -120.48077536 180.25840533 C-119.57167418 173.75626827 -118.66991297 167.25317157 -117.77402306 160.74920177 C-117.22950587 156.80894309 -116.67798266 152.86968891 -116.12447166 148.93068457 C-115.87246791 147.12675099 -115.62339913 145.32240445 -115.37757301 143.51761866 C-113.82401245 132.12397219 -111.92240059 122.1512166 -106.40234375 111.87890625 C-106.05613983 111.2296669 -105.70993591 110.58042755 -105.35324097 109.91151428 C-104.22106236 107.7916775 -103.07929941 105.67716775 -101.9375 103.5625 C-101.13232416 102.05882298 -100.32789481 100.55474603 -99.52416992 99.05029297 C-97.85389799 95.92507236 -96.1804353 92.8015916 -94.50488281 89.67919922 C-90.95199731 83.05123243 -87.445221 76.39897977 -83.93466187 69.74853516 C-81.71521403 65.54853901 -79.48639094 61.35350883 -77.25941467 57.15750122 C-75.07451258 53.03728478 -72.90254921 48.9105529 -70.74046326 44.77832031 C-69.36610496 42.15499483 -67.9843926 39.53558925 -66.60116577 36.91693115 C-65.95783316 35.69478624 -65.3177954 34.47090042 -64.68130493 33.24517822 C-63.80918017 31.56649628 -62.92441824 29.89439782 -62.0390625 28.22265625 C-61.54615723 27.28172119 -61.05325195 26.34078613 -60.54541016 25.37133789 C-57.01853727 19.95956596 -51.59293918 18.50943758 -45.7734375 16.34765625 C-44.87058014 16.00625107 -43.96772278 15.66484589 -43.0375061 15.31309509 C-40.15226216 14.22345658 -37.263781 13.14272201 -34.375 12.0625 C-31.50838542 10.98395499 -28.64246489 9.90358647 -25.77676392 8.82261658 C-23.99650732 8.15181141 -22.21560455 7.48271752 -20.43392944 6.81568909 C-15.28942725 4.88560043 -10.19465663 2.86918009 -5.12808228 0.7419281 C-3 0 -3 0 0 0 Z " fill="#B2B1B1" transform="translate(933,238)"/>
    <path d="M0 0 C1.71243068 0.30183067 3.42041195 0.62929034 5.125 0.97265625 C7.43591677 1.34808883 9.7471389 1.72164463 12.05859375 2.09375 C14.56045185 2.52937074 17.06174615 2.96824045 19.5625 3.41015625 C20.84060547 3.62736328 22.11871094 3.84457031 23.43554688 4.06835938 C24.65177734 4.28298828 25.86800781 4.49761719 27.12109375 4.71875 C28.22638428 4.91138428 29.3316748 5.10401855 30.47045898 5.30249023 C33.125 5.97265625 33.125 5.97265625 35.125 7.97265625 C34.6285498 8.65702759 34.6285498 8.65702759 34.12207031 9.35522461 C28.07614295 17.69490109 22.04964615 26.04624968 16.125 34.47265625 C11.47032275 41.09241949 6.75030659 47.66203429 2.00024414 54.21362305 C-2.36148552 60.23834014 -6.65829841 66.3070115 -10.91796875 72.40429688 C-11.37945313 73.06236328 -11.8409375 73.72042969 -12.31640625 74.3984375 C-12.71545166 74.96989502 -13.11449707 75.54135254 -13.52563477 76.13012695 C-13.97092529 76.73816162 -14.41621582 77.34619629 -14.875 77.97265625 C-15.43112473 78.78484619 -15.98724945 79.59703613 -16.56022644 80.43383789 C-19.33600008 83.4782761 -21.34843492 84.21422355 -25.26074219 85.4362793 C-25.89221161 85.63862183 -26.52368103 85.84096436 -27.17428589 86.04943848 C-29.25206116 86.7107322 -31.33645347 87.34764776 -33.421875 87.984375 C-34.8771744 88.44184928 -36.33202287 88.90076032 -37.78643799 89.36103821 C-41.61248258 90.56730154 -45.4446923 91.75269878 -49.27844238 92.9342041 C-52.39181069 93.8973837 -55.50058998 94.87487596 -58.60920334 95.85327435 C-84.76905092 104.08597136 -84.76905092 104.08597136 -92.875 105.97265625 C-91.28560574 102.04051324 -88.71157498 99.64245279 -85.6875 96.72265625 C-82.4817454 93.59153846 -79.33596788 90.45735719 -76.4375 87.03515625 C-72.94058099 82.93154286 -69.12115716 79.19115989 -65.28857422 75.40576172 C-61.88566979 72.02858003 -58.66657384 68.55723916 -55.56958008 64.89453125 C-53.96134924 63.07058756 -52.28419855 61.39470395 -50.53125 59.7109375 C-47.01408483 56.21689637 -44.08687398 52.48367362 -41.1875 48.47265625 C-37.14849165 42.98510972 -33.0304911 37.58668827 -28.75 32.28515625 C-25.015823 27.653108 -21.31666896 23.00002855 -17.6875 18.28515625 C-16.88054687 17.24746094 -16.07359375 16.20976563 -15.2421875 15.140625 C-13.59384062 12.93466902 -12.06268996 10.76438967 -10.5703125 8.4609375 C-10.19028076 7.89656982 -9.81024902 7.33220215 -9.41870117 6.75073242 C-8.37906152 5.19712392 -7.37379953 3.62066678 -6.37109375 2.04296875 C-3.875 -0.02734375 -3.875 -0.02734375 0 0 Z " fill="#B2B1B1" transform="translate(772.875,28.02734375)"/>
</svg>

