<svg version="1.1" id="Layer_1" xmlns="http://www.w3.org/2000/svg" xmlns:xlink="http://www.w3.org/1999/xlink" x="0px" y="0px"
	 width="100%" viewBox="0 0 413 340" enable-background="new 0 0 413 340" xml:space="preserve">
<path fill="#000000" opacity="1.000000" stroke="none" 
	d="
M1.000000,57.000000 
	C1.000000,38.369858 1.000000,19.739717 1.000000,1.000000 
	C56.687515,1.000000 112.375099,1.000000 168.868881,1.345771 
	C166.563110,2.359569 163.451157,3.027596 159.847946,3.801075 
	C160.090897,5.471286 160.600281,7.368395 160.603882,9.266467 
	C160.622833,19.214495 161.195984,29.226204 160.278442,39.095093 
	C159.097916,51.792526 153.487457,62.701881 144.117249,71.647560 
	C142.970428,72.742424 142.553452,76.028336 143.327972,77.486130 
	C150.260239,90.534164 157.581299,103.374870 164.683578,116.333801 
	C166.933609,120.439262 169.578827,124.525284 170.777924,128.962143 
	C172.467224,135.212830 173.013428,141.776657 173.985931,148.216003 
	C176.054230,161.911102 177.966568,175.630829 180.159760,189.305664 
	C182.297028,202.631836 184.802856,215.898682 186.965973,229.220947 
	C189.132904,242.566696 191.004959,255.960129 193.137131,269.311768 
	C195.343216,283.126251 197.697128,296.917206 200.005539,310.715271 
	C201.083038,317.155853 202.205673,323.588867 203.307861,330.025330 
	C207.335190,325.946991 210.323639,321.745789 212.835541,317.276703 
	C214.044220,315.126251 214.353897,312.470459 215.336121,309.757294 
	C218.049088,293.282532 220.554138,277.102386 222.930573,260.903412 
	C226.388474,237.332550 229.742096,213.746399 233.161987,190.169922 
	C236.106201,169.872620 239.086166,149.580521 242.039169,129.284485 
	C242.993851,122.723053 244.319824,116.549469 248.325897,110.753479 
	C255.007660,101.086281 260.419617,90.550842 266.825958,80.679306 
	C269.484375,76.582909 268.787323,73.665550 266.440308,69.871262 
	C257.301880,55.097717 250.862152,39.401623 252.041931,21.541378 
	C252.367737,16.609081 253.193619,11.709817 253.864456,6.853949 
	C253.938873,6.912502 253.769241,6.828321 254.045258,6.766613 
	C254.484268,6.384358 254.647263,6.063813 254.865997,5.349615 
	C254.331223,4.293601 253.693970,3.666181 253.164429,2.958212 
	C252.712097,2.353487 252.383392,1.656288 252.000000,0.999998 
	C305.888336,1.000000 359.776703,1.000000 414.000000,1.000000 
	C414.000000,17.352703 414.000000,33.707695 413.611328,50.599686 
	C411.494232,51.583012 409.704071,51.869434 408.049713,52.507767 
	C404.192841,53.995945 400.529785,56.181347 396.560211,57.147659 
	C382.139343,60.658134 367.711823,64.260086 353.122131,66.926369 
	C336.922668,69.886833 320.511261,69.823326 304.112671,68.076912 
	C300.769104,67.720825 297.349640,68.077362 293.563141,68.058701 
	C289.013580,69.336304 284.744873,70.377823 280.761627,72.085342 
	C278.150635,73.204590 274.769562,74.761932 273.765015,77.024918 
	C268.017914,89.971527 257.519806,100.891472 256.892242,116.058319 
	C256.785522,118.637871 256.020935,121.185356 255.637283,123.759125 
	C254.074646,134.241592 252.483688,144.720398 251.014725,155.216141 
	C249.565948,165.567657 248.326660,175.948608 246.858154,186.297180 
	C245.323761,197.109833 243.543533,207.887726 242.022629,218.702164 
	C240.543961,229.216263 239.356186,239.771423 237.862000,250.283157 
	C236.003998,263.354309 233.952698,276.397858 232.003586,289.456146 
	C230.343018,300.581268 228.612946,311.697327 227.107101,322.843567 
	C226.440826,327.775330 226.252304,332.771667 225.817215,338.102509 
	C227.751602,337.565765 228.927902,337.454102 229.884827,336.936707 
	C234.023788,334.698700 238.098602,332.342102 242.496765,329.880951 
	C257.852814,305.520172 272.984528,281.353760 287.947052,257.083008 
	C310.046814,221.235016 332.018311,185.307953 354.059540,149.423828 
	C371.415405,121.167656 388.746582,92.896057 406.222900,64.714493 
	C408.393250,61.214626 411.387512,58.225693 414.000000,55.000004 
	C414.000000,150.253098 414.000000,245.506180 414.000000,341.000000 
	C336.312592,341.000000 258.624969,341.000000 180.133759,340.770111 
	C181.457443,338.594971 183.771500,336.811981 185.649536,334.650208 
	C187.013779,333.079865 187.801285,331.008484 188.890045,328.725861 
	C186.165436,310.649567 183.439087,293.001129 180.615326,275.368256 
	C178.131027,259.855255 175.526062,244.361633 172.995529,228.856003 
	C169.772522,209.107254 166.554565,189.357666 163.365540,169.603409 
	C161.203949,156.213638 159.244980,142.789154 156.907776,129.430511 
	C155.515305,121.471703 154.656372,113.159340 151.615814,105.809166 
	C146.878876,94.358231 140.625488,83.516724 134.663544,72.608917 
	C133.723969,70.889908 130.978928,69.254807 128.997131,69.165321 
	C120.598709,68.786087 112.128593,69.555130 103.768166,68.876350 
	C91.091698,67.847160 78.313820,66.795288 65.888817,64.244186 
	C48.077675,60.587212 30.545593,55.571083 12.523836,51.085136 
	C10.446619,51.844753 8.703053,52.586105 7.042632,53.481621 
	C4.992297,54.587433 3.011081,55.821404 1.000000,57.000000 
z"/>
<path fill="#000000" opacity="1.000000" stroke="none" 
	d="
M175.000000,341.000000 
	C117.056168,341.000000 59.112339,341.000000 1.000000,341.000000 
	C1.000000,248.645844 1.000000,156.291580 1.249316,63.133606 
	C1.964209,62.777241 2.547062,63.151379 2.878572,63.682419 
	C21.269583,93.142220 39.613457,122.631462 58.018627,152.082397 
	C78.655754,185.104797 99.364929,218.082138 120.007439,251.101166 
	C134.373734,274.080963 148.736420,297.063416 162.979355,320.119690 
	C167.198090,326.948914 171.004593,334.032806 175.000000,341.000000 
z"/>
<path fill="#29235C" opacity="1.000000" stroke="none" 
	d="
M293.965179,68.105400 
	C297.349640,68.077362 300.769104,67.720825 304.112671,68.076912 
	C320.511261,69.823326 336.922668,69.886833 353.122131,66.926369 
	C367.711823,64.260086 382.139343,60.658134 396.560211,57.147659 
	C400.529785,56.181347 404.192841,53.995945 408.049713,52.507767 
	C409.704071,51.869434 411.494232,51.583012 413.611328,51.068344 
	C414.000000,52.066669 414.000000,53.133339 414.000000,54.600006 
	C411.387512,58.225693 408.393250,61.214626 406.222900,64.714493 
	C388.746582,92.896057 371.415405,121.167656 354.059540,149.423828 
	C332.018311,185.307953 310.046814,221.235016 287.947052,257.083008 
	C272.984528,281.353760 257.852814,305.520172 242.496063,329.469482 
	C243.108490,322.788940 244.003418,316.369476 244.937881,309.955780 
	C249.131119,281.175385 253.331467,252.396011 257.537201,223.617447 
	C261.696350,195.157623 266.080017,166.728348 269.946320,138.228851 
	C272.149445,121.989197 275.046417,106.176628 283.401764,91.660568 
	C287.672760,84.240448 290.490570,75.983902 293.965179,68.105400 
z"/>
<path fill="#B0AFAF" opacity="1.000000" stroke="none" 
	d="
M215.070709,310.043518 
	C214.353897,312.470459 214.044220,315.126251 212.835541,317.276703 
	C210.323639,321.745789 207.335190,325.946991 203.307861,330.025330 
	C202.205673,323.588867 201.083038,317.155853 200.005539,310.715271 
	C197.697128,296.917206 195.343216,283.126251 193.137131,269.311768 
	C191.004959,255.960129 189.132904,242.566696 186.965973,229.220947 
	C184.802856,215.898682 182.297028,202.631836 180.159760,189.305664 
	C177.966568,175.630829 176.054230,161.911102 173.985931,148.216003 
	C173.013428,141.776657 172.467224,135.212830 170.777924,128.962143 
	C169.578827,124.525284 166.933609,120.439262 164.683578,116.333801 
	C157.581299,103.374870 150.260239,90.534164 143.327972,77.486130 
	C142.553452,76.028336 142.970428,72.742424 144.117249,71.647560 
	C153.487457,62.701881 159.097916,51.792526 160.278442,39.095093 
	C161.195984,29.226204 160.622833,19.214495 160.603882,9.266467 
	C160.600281,7.368395 160.090897,5.471286 159.847946,3.801075 
	C163.451157,3.027596 166.563110,2.359569 169.337540,1.345771 
	C169.750000,1.000000 170.500000,1.000000 171.295380,1.217053 
	C172.256195,2.271235 173.171631,3.108363 174.054260,4.341622 
	C175.206589,10.752458 176.880539,16.718578 177.484024,22.791086 
	C179.211029,40.168930 175.419678,56.246532 164.247101,69.981514 
	C161.743515,73.059296 161.745834,75.214432 163.511063,78.351028 
	C170.113464,90.082893 176.700058,101.829704 182.945923,113.752510 
	C184.829865,117.348801 186.140808,121.447517 186.770874,125.464073 
	C189.807999,144.824722 192.483261,164.241837 195.360992,183.627914 
	C200.213837,216.319565 205.063309,249.011948 210.044800,281.684113 
	C211.491425,291.172119 213.383057,300.592255 215.070709,310.043518 
z"/>
<path fill="#B0AFAF" opacity="1.000000" stroke="none" 
	d="
M175.416656,341.000000 
	C171.004593,334.032806 167.198090,326.948914 162.979355,320.119690 
	C148.736420,297.063416 134.373734,274.080963 120.007439,251.101166 
	C99.364929,218.082138 78.655754,185.104797 58.018627,152.082397 
	C39.613457,122.631462 21.269583,93.142220 2.878572,63.682419 
	C2.547062,63.151379 1.964209,62.777241 1.249316,62.664948 
	C1.000000,61.285641 1.000000,59.571285 1.000000,57.428463 
	C3.011081,55.821404 4.992297,54.587433 7.042632,53.481621 
	C8.703053,52.586105 10.446619,51.844753 12.614493,51.417553 
	C14.872895,54.794579 16.610247,57.826923 18.476028,60.778069 
	C73.610336,147.985046 128.753708,235.186295 183.922119,322.371704 
	C185.413910,324.729187 187.198105,326.901703 188.845947,329.160461 
	C187.801285,331.008484 187.013779,333.079865 185.649536,334.650208 
	C183.771500,336.811981 181.457443,338.594971 179.665100,340.770111 
	C178.611115,341.000000 177.222214,341.000000 175.416656,341.000000 
z"/>
<path fill="#000000" opacity="1.000000" stroke="none" 
	d="
M174.087051,3.945491 
	C173.171631,3.108363 172.256195,2.271235 171.670380,1.217053 
	C194.354233,1.000000 216.708450,1.000000 239.872681,1.241994 
	C240.128372,2.476596 239.718765,3.591763 238.997650,4.443086 
	C230.644943,14.304360 222.245148,24.125744 213.491516,33.919186 
	C207.328110,31.933319 201.512131,30.039566 195.746796,28.002436 
	C194.230927,27.466814 192.511169,26.802095 191.508331,25.652807 
	C188.477310,22.179192 185.778976,18.417265 182.900894,14.807641 
	C179.994125,11.162064 177.027466,7.564236 174.087051,3.945491 
z"/>
<path fill="#AFAEAF" opacity="1.000000" stroke="none" 
	d="
M213.857849,33.957718 
	C222.245148,24.125744 230.644943,14.304360 238.997650,4.443086 
	C239.718765,3.591763 240.128372,2.476596 240.341339,1.241994 
	C243.692902,1.000000 247.385818,1.000000 251.539368,0.999998 
	C252.383392,1.656288 252.712097,2.353487 253.164429,2.958212 
	C253.693970,3.666181 254.331223,4.293601 254.610657,5.446065 
	C254.122803,6.233553 253.946030,6.530939 253.769241,6.828322 
	C253.769241,6.828321 253.938873,6.912502 253.547150,6.978308 
	C248.758606,13.103923 244.956512,19.735264 239.818039,25.082340 
	C233.027283,32.148766 223.375168,33.086437 214.139847,34.350216 
	C214.065155,34.360439 213.952682,34.094643 213.857849,33.957718 
z"/>
<path fill="#29235C" opacity="1.000000" stroke="none" 
	d="
M188.890030,328.725861 
	C187.198105,326.901703 185.413910,324.729187 183.922119,322.371704 
	C128.753708,235.186295 73.610336,147.985046 18.476028,60.778069 
	C16.610247,57.826923 14.872895,54.794579 12.985023,51.467667 
	C30.545593,55.571083 48.077675,60.587212 65.888817,64.244186 
	C78.313820,66.795288 91.091698,67.847160 103.768166,68.876350 
	C112.128593,69.555130 120.598709,68.786087 128.997131,69.165321 
	C130.978928,69.254807 133.723969,70.889908 134.663544,72.608917 
	C140.625488,83.516724 146.878876,94.358231 151.615814,105.809166 
	C154.656372,113.159340 155.515305,121.471703 156.907776,129.430511 
	C159.244980,142.789154 161.203949,156.213638 163.365540,169.603409 
	C166.554565,189.357666 169.772522,209.107254 172.995529,228.856003 
	C175.526062,244.361633 178.131027,259.855255 180.615326,275.368256 
	C183.439087,293.001129 186.165436,310.649567 188.890030,328.725861 
z"/>
<path fill="#29235C" opacity="1.000000" stroke="none" 
	d="
M213.491516,33.919189 
	C213.952682,34.094643 214.065155,34.360439 214.139847,34.350216 
	C223.375168,33.086437 233.027283,32.148766 239.818039,25.082340 
	C244.956512,19.735264 248.758606,13.103923 253.472733,6.919754 
	C253.193619,11.709817 252.367737,16.609081 252.041931,21.541378 
	C250.862152,39.401623 257.301880,55.097717 266.440308,69.871262 
	C268.787323,73.665550 269.484375,76.582909 266.825958,80.679306 
	C260.419617,90.550842 255.007660,101.086281 248.325897,110.753479 
	C244.319824,116.549469 242.993851,122.723053 242.039169,129.284485 
	C239.086166,149.580521 236.106201,169.872620 233.161987,190.169922 
	C229.742096,213.746399 226.388474,237.332550 222.930573,260.903412 
	C220.554138,277.102386 218.049088,293.282532 215.336121,309.757294 
	C213.383057,300.592255 211.491425,291.172119 210.044800,281.684113 
	C205.063309,249.011948 200.213837,216.319565 195.360992,183.627914 
	C192.483261,164.241837 189.807999,144.824722 186.770874,125.464073 
	C186.140808,121.447517 184.829865,117.348801 182.945923,113.752510 
	C176.700058,101.829704 170.113464,90.082893 163.511063,78.351028 
	C161.745834,75.214432 161.743515,73.059296 164.247101,69.981514 
	C175.419678,56.246532 179.211029,40.168930 177.484024,22.791086 
	C176.880539,16.718578 175.206589,10.752458 174.054260,4.341622 
	C177.027466,7.564236 179.994125,11.162064 182.900894,14.807641 
	C185.778976,18.417265 188.477310,22.179192 191.508331,25.652807 
	C192.511169,26.802095 194.230927,27.466814 195.746796,28.002436 
	C201.512131,30.039566 207.328110,31.933319 213.491516,33.919189 
z"/>
<path fill="#B0AFAF" opacity="1.000000" stroke="none" 
	d="
M293.563141,68.058701 
	C290.490570,75.983902 287.672760,84.240448 283.401764,91.660568 
	C275.046417,106.176628 272.149445,121.989197 269.946320,138.228851 
	C266.080017,166.728348 261.696350,195.157623 257.537201,223.617447 
	C253.331467,252.396011 249.131119,281.175385 244.937881,309.955780 
	C244.003418,316.369476 243.108490,322.788940 242.196060,329.617188 
	C238.098602,332.342102 234.023788,334.698700 229.884827,336.936707 
	C228.927902,337.454102 227.751602,337.565765 225.817215,338.102509 
	C226.252304,332.771667 226.440826,327.775330 227.107101,322.843567 
	C228.612946,311.697327 230.343018,300.581268 232.003586,289.456146 
	C233.952698,276.397858 236.003998,263.354309 237.862000,250.283157 
	C239.356186,239.771423 240.543961,229.216263 242.022629,218.702164 
	C243.543533,207.887726 245.323761,197.109833 246.858154,186.297180 
	C248.326660,175.948608 249.565948,165.567657 251.014725,155.216141 
	C252.483688,144.720398 254.074646,134.241592 255.637283,123.759125 
	C256.020935,121.185356 256.785522,118.637871 256.892242,116.058319 
	C257.519806,100.891472 268.017914,89.971527 273.765015,77.024918 
	C274.769562,74.761932 278.150635,73.204590 280.761627,72.085342 
	C284.744873,70.377823 289.013580,69.336304 293.563141,68.058701 
z"/>
<path fill="#29235C" opacity="1.000000" stroke="none" 
	d="
M254.045258,6.766614 
	C253.946030,6.530939 254.122803,6.233553 254.554916,5.839717 
	C254.647263,6.063813 254.484268,6.384358 254.045258,6.766614 
z"/>
</svg>